<svg width="4146" height="1712" xmlns="http://www.w3.org/2000/svg" xmlns:xlink="http://www.w3.org/1999/xlink" xml:space="preserve" overflow="hidden"><defs><filter id="fx0" x="-10%" y="-10%" width="120%" height="120%" filterUnits="userSpaceOnUse" primitiveUnits="userSpaceOnUse"><feComponentTransfer color-interpolation-filters="sRGB"><feFuncR type="discrete" tableValues="0 0"/><feFuncG type="discrete" tableValues="0 0"/><feFuncB type="discrete" tableValues="0 0"/><feFuncA type="linear" slope="0.631373" intercept="0"/></feComponentTransfer><feGaussianBlur stdDeviation="6.875 6.875"/></filter><filter id="fx1" x="-10%" y="-10%" width="120%" height="120%" filterUnits="userSpaceOnUse" primitiveUnits="userSpaceOnUse"><feComponentTransfer color-interpolation-filters="sRGB"><feFuncR type="discrete" tableValues="0 0"/><feFuncG type="discrete" tableValues="0 0"/><feFuncB type="discrete" tableValues="0 0"/><feFuncA type="linear" slope="0.631373" intercept="0"/></feComponentTransfer><feGaussianBlur stdDeviation="6.875 6.875"/></filter><filter id="fx2" x="-10%" y="-10%" width="120%" height="120%" filterUnits="userSpaceOnUse" primitiveUnits="userSpaceOnUse"><feComponentTransfer color-interpolation-filters="sRGB"><feFuncR type="discrete" tableValues="0 0"/><feFuncG type="discrete" tableValues="0 0"/><feFuncB type="discrete" tableValues="0 0"/><feFuncA type="linear" slope="0.631373" intercept="0"/></feComponentTransfer><feGaussianBlur stdDeviation="6.875 6.875"/></filter><filter id="fx3" x="-10%" y="-10%" width="120%" height="120%" filterUnits="userSpaceOnUse" primitiveUnits="userSpaceOnUse"><feComponentTransfer color-interpolation-filters="sRGB"><feFuncR type="discrete" tableValues="0 0"/><feFuncG type="discrete" tableValues="0 0"/><feFuncB type="discrete" tableValues="0 0"/><feFuncA type="linear" slope="0.631373" intercept="0"/></feComponentTransfer><feGaussianBlur stdDeviation="6.875 6.875"/></filter><filter id="fx4" x="-10%" y="-10%" width="120%" height="120%" filterUnits="userSpaceOnUse" primitiveUnits="userSpaceOnUse"><feComponentTransfer color-interpolation-filters="sRGB"><feFuncR type="discrete" tableValues="0 0"/><feFuncG type="discrete" tableValues="0 0"/><feFuncB type="discrete" tableValues="0 0"/><feFuncA type="linear" slope="0.631373" intercept="0"/></feComponentTransfer><feGaussianBlur stdDeviation="6.875 6.875"/></filter><filter id="fx5" x="-10%" y="-10%" width="120%" height="120%" filterUnits="userSpaceOnUse" primitiveUnits="userSpaceOnUse"><feComponentTransfer color-interpolation-filters="sRGB"><feFuncR type="discrete" tableValues="0 0"/><feFuncG type="discrete" tableValues="0 0"/><feFuncB type="discrete" tableValues="0 0"/><feFuncA type="linear" slope="0.631373" intercept="0"/></feComponentTransfer><feGaussianBlur stdDeviation="6.875 6.875"/></filter><filter id="fx6" x="-10%" y="-10%" width="120%" height="120%" filterUnits="userSpaceOnUse" primitiveUnits="userSpaceOnUse"><feComponentTransfer color-interpolation-filters="sRGB"><feFuncR type="discrete" tableValues="0 0"/><feFuncG type="discrete" tableValues="0 0"/><feFuncB type="discrete" tableValues="0 0"/><feFuncA type="linear" slope="0.631373" intercept="0"/></feComponentTransfer><feGaussianBlur stdDeviation="6.875 6.875"/></filter><filter id="fx7" x="-10%" y="-10%" width="120%" height="120%" filterUnits="userSpaceOnUse" primitiveUnits="userSpaceOnUse"><feComponentTransfer color-interpolation-filters="sRGB"><feFuncR type="discrete" tableValues="0 0"/><feFuncG type="discrete" tableValues="0 0"/><feFuncB type="discrete" tableValues="0 0"/><feFuncA type="linear" slope="0.631373" intercept="0"/></feComponentTransfer><feGaussianBlur stdDeviation="6.875 6.875"/></filter><clipPath id="clip8"><rect x="23" y="19" width="177" height="78"/></clipPath><linearGradient x1="1366.5" y1="953" x2="1366.5" y2="1085" gradientUnits="userSpaceOnUse" spreadMethod="reflect" id="fill9"><stop offset="0" stop-color="#47AADF"/><stop offset="0.5" stop-color="#05A2DF"/><stop offset="1" stop-color="#0094CE"/></linearGradient><clipPath id="clip10"><rect x="34" y="23" width="77" height="228"/></clipPath><linearGradient x1="1422" y1="1436.5" x2="1220" y2="1436.5" gradientUnits="userSpaceOnUse" spreadMethod="reflect" id="fill11"><stop offset="0" stop-color="#47AADF"/><stop offset="0.5" stop-color="#05A2DF"/><stop offset="1" stop-color="#0094CE"/></linearGradient><clipPath id="clip12"><rect x="23" y="19" width="177" height="78"/></clipPath><linearGradient x1="3070.5" y1="1175" x2="3070.5" y2="1622" gradientUnits="userSpaceOnUse" spreadMethod="reflect" id="fill13"><stop offset="0" stop-color="#47AADF"/><stop offset="0.5" stop-color="#05A2DF"/><stop offset="1" stop-color="#0094CE"/></linearGradient><clipPath id="clip14"><rect x="23" y="23" width="228" height="74"/></clipPath><linearGradient x1="3048" y1="962" x2="3048" y2="1093" gradientUnits="userSpaceOnUse" spreadMethod="reflect" id="fill15"><stop offset="0" stop-color="#47AADF"/><stop offset="0.5" stop-color="#05A2DF"/><stop offset="1" stop-color="#0094CE"/></linearGradient></defs><g transform="translate(-138 -495)"><rect x="2519.5" y="498.5" width="1761" height="1705" stroke="#042433" stroke-width="6.875" stroke-miterlimit="8" fill="#D9F2D0"/><text font-family="Aptos,Aptos_MSFontService,sans-serif" font-weight="700" font-size="83" transform="matrix(1 0 0 1 2564.3 602)">VM</text><text font-family="Aptos,Aptos_MSFontService,sans-serif" font-weight="700" font-size="83" transform="matrix(1 0 0 1 2699.51 602)">Hos</text><text font-family="Aptos,Aptos_MSFontService,sans-serif" font-weight="700" font-size="83" transform="matrix(1 0 0 1 2848.93 602)">t</text><rect x="142.5" y="498.5" width="1761" height="1705" stroke="#042433" stroke-width="6.875" stroke-miterlimit="8" fill="#DCEAF7"/><rect x="315.5" y="715.5" width="1363" height="1346" stroke="#042433" stroke-width="6.875" stroke-miterlimit="8" fill="#156082"/><rect x="336.5" y="847.5" width="378" height="330" stroke="#410C3B" stroke-width="6.875" stroke-miterlimit="8" fill="#A02B93"/><text fill="#FFFFFF" font-family="Aptos,Aptos_MSFontService,sans-serif" font-weight="700" font-size="64" transform="matrix(1 0 0 1 388.319 956)">mw</text><text fill="#FFFFFF" font-family="Aptos,Aptos_MSFontService,sans-serif" font-weight="700" font-size="64" transform="matrix(1 0 0 1 493.987 956)">::</text><text fill="#FFFFFF" font-family="Aptos,Aptos_MSFontService,sans-serif" font-weight="700" font-size="64" transform="matrix(1 0 0 1 532.946 956)">com</text><text fill="#FFFFFF" font-family="Aptos,Aptos_MSFontService,sans-serif" font-weight="700" font-size="64" transform="matrix(1 0 0 1 403.742 1033)">Provider </text><text fill="#FFFFFF" font-family="Aptos,Aptos_MSFontService,sans-serif" font-weight="700" font-size="64" transform="matrix(1 0 0 1 467.519 1110)">App</text><rect x="2034.5" y="908.5" width="378" height="78.0001" stroke="#622C0F" stroke-width="6.875" stroke-miterlimit="8" fill="#E97132"/><text fill="#FFFFFF" font-family="Aptos,Aptos_MSFontService,sans-serif" font-weight="400" font-size="55" transform="matrix(1 0 0 1 2161.07 965)">DATA</text><rect x="2034.5" y="995.5" width="378" height="78" stroke="#622C0F" stroke-width="6.875" stroke-miterlimit="8" fill="#E97132"/><text fill="#FFFFFF" font-family="Aptos,Aptos_MSFontService,sans-serif" font-weight="400" font-size="64" transform="matrix(1 0 0 1 2150.01 1055)">CTRL</text><rect x="2034.5" y="1083.5" width="378" height="77" stroke="#622C0F" stroke-width="6.875" stroke-miterlimit="8" fill="#E97132"/><text fill="#FFFFFF" font-family="Aptos,Aptos_MSFontService,sans-serif" font-weight="400" font-size="64" transform="matrix(1 0 0 1 2150.01 1142)">CTRL</text><rect x="330.5" y="1536.5" width="700" height="510" stroke="#156082" stroke-width="6.875" stroke-miterlimit="8" fill="#FFFFFF"/><text font-family="Aptos,Aptos_MSFontService,sans-serif" font-weight="700" font-size="50" transform="matrix(1 0 0 1 376.898 1641)">\</text><text font-family="Aptos,Aptos_MSFontService,sans-serif" font-weight="700" font-size="50" transform="matrix(1 0 0 1 396.377 1641)">tmp_discovery</text><text font-family="Aptos,Aptos_MSFontService,sans-serif" font-weight="700" font-size="50" transform="matrix(1 0 0 1 431.898 1712)">\</text><text font-family="Aptos,Aptos_MSFontService,sans-serif" font-weight="700" font-size="50" transform="matrix(1 0 0 1 451.377 1712)">mw_com_lola</text><text font-family="Aptos,Aptos_MSFontService,sans-serif" font-weight="700" font-size="50" transform="matrix(1 0 0 1 486.898 1778)">\</text><text font-family="Aptos,Aptos_MSFontService,sans-serif" font-weight="700" font-size="50" transform="matrix(1 0 0 1 506.377 1778)">service_discovery</text><text font-family="Aptos,Aptos_MSFontService,sans-serif" font-weight="700" font-size="50" transform="matrix(1 0 0 1 541.898 1836)">\</text><text font-family="Aptos,Aptos_MSFontService,sans-serif" font-weight="700" font-size="50" transform="matrix(1 0 0 1 561.377 1836)">255</text><text font-family="Aptos,Aptos_MSFontService,sans-serif" font-weight="700" font-size="50" transform="matrix(1 0 0 1 596.898 1891)">\</text><text font-family="Aptos,Aptos_MSFontService,sans-serif" font-weight="700" font-size="50" transform="matrix(1 0 0 1 616.377 1891)">1</text><text font-family="Aptos,Aptos_MSFontService,sans-serif" font-weight="700" font-size="50" transform="matrix(1 0 0 1 651.898 1946)">\</text><text font-family="Aptos,Aptos_MSFontService,sans-serif" font-weight="700" font-size="50" transform="matrix(1 0 0 1 671.377 1946)">&lt;</text><text font-family="Aptos,Aptos_MSFontService,sans-serif" font-weight="700" font-size="50" transform="matrix(1 0 0 1 698.304 1946)">pid</text><text font-family="Aptos,Aptos_MSFontService,sans-serif" font-weight="700" font-size="50" transform="matrix(1 0 0 1 771.637 1946)">&gt;_</text><text font-family="Aptos,Aptos_MSFontService,sans-serif" font-weight="700" font-size="50" transform="matrix(1 0 0 1 821.481 1946)">tstmp_b</text><rect x="2732.5" y="698.5" width="1363" height="1345" stroke="#042433" stroke-width="6.875" stroke-miterlimit="8" fill="#156082"/><rect x="3384.5" y="1520.5" width="700" height="510" stroke="#156082" stroke-width="6.875" stroke-miterlimit="8" fill="#FFFFFF"/><text font-family="Aptos,Aptos_MSFontService,sans-serif" font-weight="700" font-size="50" transform="matrix(1 0 0 1 3431.35 1625)">\</text><text font-family="Aptos,Aptos_MSFontService,sans-serif" font-weight="700" font-size="50" transform="matrix(1 0 0 1 3450.83 1625)">tmp_discovery</text><text font-family="Aptos,Aptos_MSFontService,sans-serif" font-weight="700" font-size="50" transform="matrix(1 0 0 1 3486.35 1696)">\</text><text font-family="Aptos,Aptos_MSFontService,sans-serif" font-weight="700" font-size="50" transform="matrix(1 0 0 1 3505.83 1696)">mw_com_lola</text><text font-family="Aptos,Aptos_MSFontService,sans-serif" font-weight="700" font-size="50" transform="matrix(1 0 0 1 3541.35 1762)">\</text><text font-family="Aptos,Aptos_MSFontService,sans-serif" font-weight="700" font-size="50" transform="matrix(1 0 0 1 3560.83 1762)">service_discovery</text><text font-family="Aptos,Aptos_MSFontService,sans-serif" font-weight="700" font-size="50" transform="matrix(1 0 0 1 3596.35 1820)">\</text><text font-family="Aptos,Aptos_MSFontService,sans-serif" font-weight="700" font-size="50" transform="matrix(1 0 0 1 3615.83 1820)">255</text><text font-family="Aptos,Aptos_MSFontService,sans-serif" font-weight="700" font-size="50" transform="matrix(1 0 0 1 3651.35 1875)">\</text><text font-family="Aptos,Aptos_MSFontService,sans-serif" font-weight="700" font-size="50" transform="matrix(1 0 0 1 3670.83 1875)">1</text><text font-family="Aptos,Aptos_MSFontService,sans-serif" font-weight="700" font-size="50" transform="matrix(1 0 0 1 3706.35 1930)">\</text><text font-family="Aptos,Aptos_MSFontService,sans-serif" font-weight="700" font-size="50" transform="matrix(1 0 0 1 3725.83 1930)">&lt;</text><text font-family="Aptos,Aptos_MSFontService,sans-serif" font-weight="700" font-size="50" transform="matrix(1 0 0 1 3752.76 1930)">pid</text><text font-family="Aptos,Aptos_MSFontService,sans-serif" font-weight="700" font-size="50" transform="matrix(1 0 0 1 3826.09 1930)">&gt;_</text><text font-family="Aptos,Aptos_MSFontService,sans-serif" font-weight="700" font-size="50" transform="matrix(1 0 0 1 3875.93 1930)">tstmp_b</text><rect x="1426.5" y="1482.5" width="156" height="523" stroke="#1C440D" stroke-width="6.875" stroke-miterlimit="8" fill="#4EA72E"/><text fill="#FFFFFF" font-family="Aptos,Aptos_MSFontService,sans-serif" font-weight="700" font-size="73" transform="matrix(6.12323e-17 -1 1 6.12323e-17 1527.86 1889)">Gateway</text><g filter="url(#fx0)" transform="translate(721 938)"><g><path d="M21.9998 54.8749 1203 54.8749 1203 21.8749 1269 87.8749 1203 153.875 1203 120.875 21.9998 120.875Z" fill="#FF0000" fill-rule="evenodd"/></g></g><g clip-path="url(#clip8)" filter="url(#fx1)" transform="translate(1239 967)"><g><path d="M15.1147 0.360352C12.3921 0.360352 10.0498-0.210205 8.08789-1.35132 6.12598-2.49243 4.61784-4.09399 3.56348-6.15601 2.50911-8.21802 1.98193-10.6504 1.98193-13.4531 1.98193-16.2559 2.50911-18.6949 3.56348-20.7703 4.61784-22.8456 6.12598-24.4539 8.08789-25.595 10.0498-26.7361 12.3921-27.3066 15.1147-27.3066 17.2235-27.3066 19.1654-26.9429 20.9404-26.2156 22.7155-25.4882 24.1569-24.4138 25.2646-22.9924 26.3724-21.571 26.9797-19.8193 27.0864-17.7373L21.3208-17.7373C21.174-18.8317 20.817-19.7393 20.2498-20.46 19.6825-21.1807 18.9585-21.7212 18.0776-22.0815 17.1968-22.4419 16.2091-22.6221 15.1147-22.6221 13.353-22.6221 11.935-22.195 10.8606-21.3408 9.78621-20.4867 9.00545-19.3689 8.51831-17.9875 8.03117-16.6062 7.7876-15.0947 7.7876-13.4531 7.7876-11.8249 8.03117-10.3167 8.51831-8.92871 9.00545-7.54069 9.78621-6.42627 10.8606-5.58545 11.935-4.74463 13.353-4.32422 15.1147-4.32422 16.9699-4.32422 18.4347-4.80135 19.509-5.75561 20.5834-6.70988 21.2007-8.06787 21.3608-9.82959L27.1265-9.82959C26.9663-7.62744 26.3857-5.76896 25.3848-4.25415 24.3838-2.73934 23.0158-1.59155 21.2808-0.810791 19.5457-0.0300293 17.4904 0.360352 15.1147 0.360352ZM32.0615 0 32.0615-19.5391 37.1465-19.5391 37.2466-16.1558C37.7537-17.3302 38.5145-18.2311 39.5288-18.8584 40.5431-19.4857 41.771-19.7993 43.2124-19.7993L43.6128-19.7993 43.6128-15.335 43.1123-15.335C42.3249-15.335 41.5708-15.2649 40.8501-15.1248 40.1294-14.9846 39.4754-14.7444 38.8882-14.4041 38.3009-14.0637 37.7938-13.5933 37.3667-12.9927L37.3667 0ZM56.519 0.360352C54.3436 0.360352 52.5151-0.0433757 51.0337-0.85083 49.5522-1.65828 48.4311-2.82275 47.6704-4.34424 46.9097-5.86572 46.5293-7.69417 46.5293-9.82959 46.5293-11.8983 46.8997-13.68 47.6404-15.1748 48.3811-16.6696 49.4688-17.8207 50.9036-18.6282 52.3383-19.4356 54.1033-19.8394 56.1987-19.8394 59.1082-19.8394 61.4071-18.9885 63.0955-17.2869 64.7838-15.5852 65.6279-13.1595 65.6279-10.0098 65.6279-9.84961 65.6212-9.63273 65.6079-9.35913 65.5946-9.08553 65.5745-8.87532 65.5478-8.72851L51.8345-8.72851C51.8612-7.80762 52.0313-6.94678 52.345-6.146 52.6586-5.34521 53.1558-4.70125 53.8364-4.21411 54.5171-3.72697 55.4113-3.4834 56.519-3.4834 57.6668-3.4834 58.5877-3.73364 59.2817-4.23413 59.9757-4.73462 60.3294-5.47868 60.3428-6.46631L65.5679-6.46631C65.5011-4.94482 65.0841-3.67692 64.3166-2.6626 63.5492-1.64827 62.5015-0.890869 61.1736-0.390381 59.8456 0.110107 58.2941 0.360352 56.519 0.360352ZM51.8945-12.0918 60.3628-12.0918C60.3227-13.4531 59.919-14.4708 59.1516-15.1448 58.3842-15.8188 57.3999-16.1558 56.1987-16.1558 54.9709-16.1558 53.9665-15.8088 53.1858-15.1147 52.405-14.4207 51.9746-13.4131 51.8945-12.0918ZM75.7721 0.340332C74.6644 0.340332 73.63 0.12679 72.6691-0.300293 71.7082-0.727376 70.9307-1.37134 70.3368-2.23218 69.7429-3.09302 69.446-4.17074 69.446-5.46533 69.446-7.26709 69.9865-8.62508 71.0675-9.53931 72.1486-10.4535 73.6601-11.0741 75.602-11.4011 77.5439-11.7281 79.8027-11.9183 82.3786-11.9717L82.3786-13.0127C82.3786-14.2806 82.0749-15.1481 81.4677-15.6152 80.8604-16.0824 80.0763-16.3159 79.1154-16.3159 78.061-16.3159 77.1935-16.0657 76.5129-15.5652 75.8322-15.0647 75.4919-14.2539 75.4919-13.1328L70.527-13.1328C70.527-14.8011 70.8907-16.1224 71.6181-17.0967 72.3455-18.071 73.3531-18.7716 74.641-19.1987 75.929-19.6258 77.4204-19.8394 79.1154-19.8394 80.3566-19.8394 81.491-19.7359 82.5187-19.5291 83.5464-19.3222 84.4372-18.9652 85.1913-18.458 85.9454-17.9508 86.5293-17.2602 86.943-16.386 87.3568-15.5118 87.5636-14.4207 87.5636-13.1128L87.5636 0 82.5988 0 82.4386-2.54248C81.6112-1.59489 80.6502-0.877523 79.5558-0.390381 78.4614 0.096761 77.2002 0.340332 75.7721 0.340332ZM77.5138-3.30322C78.5148-3.30322 79.439-3.56348 80.2865-4.08398 81.134-4.60449 81.8114-5.1984 82.3185-5.86572L82.3185-9.02881C79.5158-9.01546 77.5539-8.75187 76.4328-8.23804 75.3117-7.7242 74.7511-6.89339 74.7511-5.7456 74.7511-4.91813 75.008-4.3042 75.5219-3.90381 76.0357-3.50342 76.6997-3.30322 77.5138-3.30322ZM101.712 0C99.7365 0 98.205-0.236898 97.1173-0.710693 96.0295-1.18449 95.2721-1.91854 94.845-2.91284 94.418-3.90714 94.2044-5.20508 94.2044-6.80664L94.2044-15.4551 90.9613-15.4551 90.9613-19.5391 94.2044-19.5391 94.2044-24.1436 99.5096-24.1436 99.5096-19.5391 103.774-19.5391 103.774-15.4551 99.5096-15.4551 99.5096-7.12695C99.5096-6.09928 99.6531-5.33854 99.94-4.84473 100.227-4.35091 100.878-4.104 101.892-4.104L103.774-4.104 103.774 0ZM117.248 0.360352C115.073 0.360352 113.244-0.0433757 111.763-0.85083 110.281-1.65828 109.16-2.82275 108.4-4.34424 107.639-5.86572 107.258-7.69417 107.258-9.82959 107.258-11.8983 107.629-13.68 108.37-15.1748 109.11-16.6696 110.198-17.8207 111.633-18.6282 113.067-19.4356 114.833-19.8394 116.928-19.8394 119.837-19.8394 122.136-18.9885 123.825-17.2869 125.513-15.5852 126.357-13.1595 126.357-10.0098 126.357-9.84961 126.35-9.63273 126.337-9.35913 126.324-9.08553 126.304-8.87532 126.277-8.72851L112.564-8.72851C112.59-7.80762 112.76-6.94678 113.074-6.146 113.388-5.34521 113.885-4.70125 114.566-4.21411 115.246-3.72697 116.14-3.4834 117.248-3.4834 118.396-3.4834 119.317-3.73364 120.011-4.23413 120.705-4.73462 121.059-5.47868 121.072-6.46631L126.297-6.46631C126.23-4.94482 125.813-3.67692 125.046-2.6626 124.278-1.64827 123.231-0.890869 121.903-0.390381 120.575 0.110107 119.023 0.360352 117.248 0.360352ZM112.624-12.0918 121.092-12.0918C121.052-13.4531 120.648-14.4708 119.881-15.1448 119.113-15.8188 118.129-16.1558 116.928-16.1558 115.7-16.1558 114.696-15.8088 113.915-15.1147 113.134-14.4207 112.704-13.4131 112.624-12.0918Z" fill="#FFFFFF" transform="matrix(1 0 0 1 46.8401 72)"/></g></g><path d="M743 986 1924 986 1924 953 1990 1019 1924 1085 1924 1052 743 1052Z" fill="url(#fill9)" fill-rule="evenodd"/><text fill="#FFFFFF" font-family="Aptos,Aptos_MSFontService,sans-serif" font-weight="700" font-size="41" transform="matrix(1 0 0 1 1285.84 1033)">Create</text><text fill="#FFFFFF" font-family="Aptos,Aptos_MSFontService,sans-serif" font-weight="700" font-size="64" transform="matrix(1 0 0 1 1181.74 864)">shared</text><text fill="#FFFFFF" font-family="Aptos,Aptos_MSFontService,sans-serif" font-weight="700" font-size="64" transform="matrix(1 0 0 1 1383.85 864)">-</text><text fill="#FFFFFF" font-family="Aptos,Aptos_MSFontService,sans-serif" font-weight="700" font-size="64" transform="matrix(1 0 0 1 1405.62 864)">memory</text><g filter="url(#fx2)" transform="translate(1198 1160)"><g><path d="M72.5002 21.8749 72.5002 469.125 173.5 469.125 173.5 443.876 224 494.375 173.5 544.875 173.5 519.625 22 519.625 22 21.8749Z" fill="#FF0000" fill-rule="evenodd"/></g></g><g clip-path="url(#clip10)" filter="url(#fx3)" transform="translate(1174 1293)"><g><path d="M15.1147 0.360352C12.3921 0.360352 10.0498-0.210205 8.08789-1.35132 6.12598-2.49243 4.61784-4.09399 3.56348-6.15601 2.50911-8.21802 1.98193-10.6504 1.98193-13.4531 1.98193-16.2559 2.50911-18.6949 3.56348-20.7703 4.61784-22.8456 6.12598-24.4539 8.08789-25.595 10.0498-26.7361 12.3921-27.3066 15.1147-27.3066 17.2235-27.3066 19.1654-26.9429 20.9404-26.2156 22.7155-25.4882 24.1569-24.4138 25.2646-22.9924 26.3724-21.571 26.9797-19.8193 27.0864-17.7373L21.3208-17.7373C21.174-18.8317 20.817-19.7393 20.2498-20.46 19.6825-21.1807 18.9585-21.7212 18.0776-22.0815 17.1968-22.4419 16.2091-22.6221 15.1147-22.6221 13.353-22.6221 11.935-22.195 10.8606-21.3408 9.78621-20.4867 9.00545-19.3689 8.51831-17.9875 8.03117-16.6062 7.7876-15.0947 7.7876-13.4531 7.7876-11.8249 8.03117-10.3167 8.51831-8.92871 9.00545-7.54069 9.78621-6.42627 10.8606-5.58545 11.935-4.74463 13.353-4.32422 15.1147-4.32422 16.9699-4.32422 18.4347-4.80135 19.509-5.75561 20.5834-6.70988 21.2007-8.06787 21.3608-9.82959L27.1265-9.82959C26.9663-7.62744 26.3857-5.76896 25.3848-4.25415 24.3838-2.73934 23.0158-1.59155 21.2808-0.810791 19.5457-0.0300293 17.4904 0.360352 15.1147 0.360352ZM40.9302 0.320312C38.9549 0.320312 37.2232-0.073405 35.7351-0.86084 34.247-1.64827 33.0959-2.78939 32.2817-4.28418 31.4676-5.77897 31.0605-7.5874 31.0605-9.70947 31.0605-11.8716 31.4676-13.71 32.2817-15.2249 33.0959-16.7397 34.247-17.8941 35.7351-18.6882 37.2232-19.4823 38.9549-19.8794 40.9302-19.8794 42.9321-19.8794 44.6772-19.4823 46.1653-18.6882 47.6534-17.8941 48.8112-16.7397 49.6387-15.2249 50.4661-13.71 50.8799-11.8716 50.8799-9.70947 50.8799-7.5874 50.4661-5.77897 49.6387-4.28418 48.8112-2.78939 47.6534-1.64827 46.1653-0.86084 44.6772-0.073405 42.9321 0.320312 40.9302 0.320312ZM40.9302-3.72363C42.0913-3.72363 43.0022-3.9939 43.6628-4.53442 44.3235-5.07495 44.7906-5.79899 45.0642-6.70654 45.3378-7.61409 45.4746-8.61507 45.4746-9.70947 45.4746-10.8306 45.3378-11.8516 45.0642-12.7725 44.7906-13.6934 44.3235-14.4274 43.6628-14.9746 43.0022-15.5218 42.0913-15.7954 40.9302-15.7954 39.7957-15.7954 38.9049-15.5218 38.2576-14.9746 37.6103-14.4274 37.1532-13.6934 36.8862-12.7725 36.6193-11.8516 36.4858-10.8306 36.4858-9.70947 36.4858-8.61507 36.6193-7.61409 36.8862-6.70654 37.1532-5.79899 37.6103-5.07495 38.2576-4.53442 38.9049-3.9939 39.7957-3.72363 40.9302-3.72363ZM55.5511 0 55.5511-19.5391 60.6561-19.5391 60.7562-16.6162C61.4101-17.457 62.271-18.2011 63.3387-18.8484 64.4064-19.4957 65.7944-19.8193 67.5028-19.8193 69.4914-19.8193 71.0329-19.2154 72.1273-18.0076 73.2217-16.7997 73.7689-15.0347 73.7689-12.7124L73.7689 0 68.5037 0 68.5037-12.0317C68.5037-12.7391 68.4036-13.3597 68.2034-13.8936 68.0033-14.4274 67.6863-14.8411 67.2525-15.1348 66.8188-15.4284 66.2482-15.5752 65.5408-15.5752 64.4865-15.5752 63.5823-15.3283 62.8282-14.8345 62.0741-14.3407 61.4168-13.7401 60.8563-13.0327L60.8563 0ZM87.4613 0.360352C86.3802 0.360352 85.3192 0.260254 84.2782 0.0600586 83.2371-0.140137 82.2962-0.483805 81.4554-0.970947 80.6146-1.45809 79.9473-2.12207 79.4534-2.96289 78.9596-3.80371 78.7127-4.8514 78.7127-6.10596L83.6375-6.10596C83.6375-5.01156 84.0212-4.25081 84.7887-3.82373 85.5561-3.39665 86.4536-3.18311 87.4813-3.18311 88.4956-3.18311 89.283-3.3466 89.8436-3.67358 90.4041-4.00057 90.6844-4.55111 90.6844-5.32519 90.6844-6.05924 90.3541-6.60644 89.6934-6.9668 89.0328-7.32715 87.875-7.69417 86.22-8.06787 84.832-8.40153 83.5941-8.80526 82.5064-9.27905 81.4187-9.75285 80.5679-10.3868 79.9539-11.1809 79.34-11.975 79.033-13.0194 79.033-14.314 79.033-15.3283 79.2666-16.1891 79.7337-16.8965 80.2008-17.6038 80.8248-18.1744 81.6055-18.6082 82.3863-19.0419 83.2672-19.3589 84.2481-19.5591 85.2291-19.7593 86.2334-19.8594 87.2611-19.8594 88.262-19.8594 89.243-19.7593 90.2039-19.5591 91.1649-19.3589 92.0324-19.0219 92.8065-18.5481 93.5806-18.0743 94.2012-17.437 94.6683-16.6362 95.1354-15.8354 95.369-14.8345 95.369-13.6333L90.4442-13.6333C90.4442-14.6343 90.1272-15.3283 89.4932-15.7153 88.8593-16.1024 88.1152-16.2959 87.2611-16.2959 86.3402-16.2959 85.6161-16.1624 85.0889-15.8955 84.5618-15.6286 84.2982-15.1881 84.2982-14.5742 84.2982-14.2139 84.465-13.8969 84.7987-13.6233 85.1323-13.3497 85.6662-13.0961 86.4002-12.8625 87.1343-12.629 88.1019-12.3787 89.3031-12.1118 90.571-11.8182 91.7054-11.4378 92.7064-10.9707 93.7074-10.5036 94.5015-9.8763 95.0887-9.08887 95.6759-8.30143 95.9696-7.28044 95.9696-6.02588 95.9696-4.8514 95.7327-3.8571 95.2589-3.04297 94.7851-2.22884 94.1511-1.57153 93.357-1.07104 92.5629-0.570557 91.6553-0.206868 90.6344 0.0200195 89.6134 0.246908 88.5557 0.360352 87.4613 0.360352ZM106.837 0.260254C104.862 0.260254 103.334-0.350342 102.253-1.57153 101.172-2.79272 100.631-4.53109 100.631-6.78662L100.631-19.5391 105.937-19.5391 105.937-7.42725C105.937-6.75993 106.033-6.16935 106.227-5.65552 106.42-5.14168 106.741-4.74463 107.188-4.46435 107.635-4.18408 108.225-4.04394 108.959-4.04394 110.027-4.04394 110.938-4.28084 111.692-4.75464 112.446-5.22843 113.104-5.80566 113.664-6.48633L113.664-19.5391 118.969-19.5391 118.969 0 113.844 0 113.764-2.94287C113.11-2.1154 112.216-1.37467 111.082-0.720703 109.947-0.0667318 108.532 0.260254 106.837 0.260254ZM124.874 0 124.874-19.5391 129.979-19.5391 130.079-16.6162C130.72-17.457 131.604-18.2011 132.732-18.8484 133.859-19.4957 135.251-19.8193 136.906-19.8193 138.868-19.8193 140.372-19.2021 141.42-17.9675 142.468-16.733 142.992-14.9813 142.992-12.7124L142.992 0 137.687 0 137.687-12.0317C137.687-12.7391 137.59-13.3597 137.396-13.8936 137.203-14.4274 136.889-14.8411 136.455-15.1348 136.022-15.4284 135.458-15.5752 134.764-15.5752 133.736-15.5752 132.855-15.3283 132.121-14.8345 131.387-14.3407 130.74-13.7401 130.179-13.0327L130.179 0ZM150.519 0 150.519-12.0317C150.519-12.7391 150.422-13.3597 150.229-13.8936 150.035-14.4274 149.722-14.8411 149.288-15.1348 148.854-15.4284 148.29-15.5752 147.596-15.5752 146.568-15.5752 145.684-15.3483 144.944-14.8945 144.203-14.4408 143.539-13.8735 142.952-13.1929L142.311-16.4761C143.152-17.3703 144.183-18.151 145.404-18.8184 146.625-19.4857 148.063-19.8193 149.718-19.8193 151.667-19.8193 153.172-19.2021 154.233-17.9675 155.294-16.733 155.824-14.9813 155.824-12.7124L155.824 0ZM170.529 0.360352C168.354 0.360352 166.526-0.0433757 165.044-0.85083 163.563-1.65828 162.442-2.82275 161.681-4.34424 160.92-5.86572 160.54-7.69417 160.54-9.82959 160.54-11.8983 160.91-13.68 161.651-15.1748 162.392-16.6696 163.479-17.8207 164.914-18.6282 166.349-19.4356 168.114-19.8394 170.209-19.8394 173.119-19.8394 175.418-18.9885 177.106-17.2869 178.794-15.5852 179.638-13.1595 179.638-10.0098 179.638-9.84961 179.632-9.63273 179.618-9.35913 179.605-9.08553 179.585-8.87532 179.558-8.72851L165.845-8.72851C165.872-7.80762 166.042-6.94678 166.355-6.146 166.669-5.34521 167.166-4.70125 167.847-4.21411 168.527-3.72697 169.422-3.4834 170.529-3.4834 171.677-3.4834 172.598-3.73364 173.292-4.23413 173.986-4.73462 174.34-5.47868 174.353-6.46631L179.578-6.46631C179.512-4.94482 179.094-3.67692 178.327-2.6626 177.56-1.64827 176.512-0.890869 175.184-0.390381 173.856 0.110107 172.305 0.360352 170.529 0.360352ZM165.905-12.0918 174.373-12.0918C174.333-13.4531 173.929-14.4708 173.162-15.1448 172.395-15.8188 171.41-16.1558 170.209-16.1558 168.981-16.1558 167.977-15.8088 167.196-15.1147 166.415-14.4207 165.985-13.4131 165.905-12.0918Z" fill="#FFFFFF" transform="matrix(6.12323e-17 1 -1 6.12323e-17 58.4036 47)"/></g></g><path d="M1270.5 1175 1270.5 1622.25 1371.5 1622.25 1371.5 1597 1422 1647.5 1371.5 1698 1371.5 1672.75 1220 1672.75 1220 1175Z" fill="url(#fill11)" fill-rule="evenodd"/><text fill="#FFFFFF" font-family="Aptos,Aptos_MSFontService,sans-serif" font-weight="700" font-size="41" transform="matrix(6.12323e-17 1 -1 6.12323e-17 1232.4 1333)">Consume</text><text fill="#FFFFFF" font-family="Aptos,Aptos_MSFontService,sans-serif" font-weight="700" font-size="64" transform="matrix(1 0 0 1 2761.36 864)">shared</text><text fill="#FFFFFF" font-family="Aptos,Aptos_MSFontService,sans-serif" font-weight="700" font-size="64" transform="matrix(1 0 0 1 2963.46 864)">-</text><text fill="#FFFFFF" font-family="Aptos,Aptos_MSFontService,sans-serif" font-weight="700" font-size="64" transform="matrix(1 0 0 1 2985.23 864)">memory</text><g filter="url(#fx4)" transform="translate(2934 1160)"><g><path d="M22 411.625 165.125 411.625 165.125 79.125 136.5 79.125 193.75 21.8749 251 79.125 222.375 79.125 222.375 468.875 22 468.875Z" fill="#FF0000" fill-rule="evenodd"/></g></g><g clip-path="url(#clip12)" filter="url(#fx5)" transform="translate(2945 1541)"><g><path d="M15.1147 0.360352C12.3921 0.360352 10.0498-0.210205 8.08789-1.35132 6.12598-2.49243 4.61784-4.09399 3.56348-6.15601 2.50911-8.21802 1.98193-10.6504 1.98193-13.4531 1.98193-16.2559 2.50911-18.6949 3.56348-20.7703 4.61784-22.8456 6.12598-24.4539 8.08789-25.595 10.0498-26.7361 12.3921-27.3066 15.1147-27.3066 17.2235-27.3066 19.1654-26.9429 20.9404-26.2156 22.7155-25.4882 24.1569-24.4138 25.2646-22.9924 26.3724-21.571 26.9797-19.8193 27.0864-17.7373L21.3208-17.7373C21.174-18.8317 20.817-19.7393 20.2498-20.46 19.6825-21.1807 18.9585-21.7212 18.0776-22.0815 17.1968-22.4419 16.2091-22.6221 15.1147-22.6221 13.353-22.6221 11.935-22.195 10.8606-21.3408 9.78621-20.4867 9.00545-19.3689 8.51831-17.9875 8.03117-16.6062 7.7876-15.0947 7.7876-13.4531 7.7876-11.8249 8.03117-10.3167 8.51831-8.92871 9.00545-7.54069 9.78621-6.42627 10.8606-5.58545 11.935-4.74463 13.353-4.32422 15.1147-4.32422 16.9699-4.32422 18.4347-4.80135 19.509-5.75561 20.5834-6.70988 21.2007-8.06787 21.3608-9.82959L27.1265-9.82959C26.9663-7.62744 26.3857-5.76896 25.3848-4.25415 24.3838-2.73934 23.0158-1.59155 21.2808-0.810791 19.5457-0.0300293 17.4904 0.360352 15.1147 0.360352ZM32.0615 0 32.0615-19.5391 37.1465-19.5391 37.2466-16.1558C37.7537-17.3302 38.5145-18.2311 39.5288-18.8584 40.5431-19.4857 41.771-19.7993 43.2124-19.7993L43.6128-19.7993 43.6128-15.335 43.1123-15.335C42.3249-15.335 41.5708-15.2649 40.8501-15.1248 40.1294-14.9846 39.4754-14.7444 38.8882-14.4041 38.3009-14.0637 37.7938-13.5933 37.3667-12.9927L37.3667 0ZM56.519 0.360352C54.3436 0.360352 52.5151-0.0433757 51.0337-0.85083 49.5522-1.65828 48.4311-2.82275 47.6704-4.34424 46.9097-5.86572 46.5293-7.69417 46.5293-9.82959 46.5293-11.8983 46.8997-13.68 47.6404-15.1748 48.3811-16.6696 49.4688-17.8207 50.9036-18.6282 52.3383-19.4356 54.1033-19.8394 56.1987-19.8394 59.1082-19.8394 61.4071-18.9885 63.0955-17.2869 64.7838-15.5852 65.6279-13.1595 65.6279-10.0098 65.6279-9.84961 65.6212-9.63273 65.6079-9.35913 65.5946-9.08553 65.5745-8.87532 65.5478-8.72851L51.8345-8.72851C51.8612-7.80762 52.0313-6.94678 52.345-6.146 52.6586-5.34521 53.1558-4.70125 53.8364-4.21411 54.5171-3.72697 55.4113-3.4834 56.519-3.4834 57.6668-3.4834 58.5877-3.73364 59.2817-4.23413 59.9757-4.73462 60.3294-5.47868 60.3428-6.46631L65.5679-6.46631C65.5011-4.94482 65.0841-3.67692 64.3166-2.6626 63.5492-1.64827 62.5015-0.890869 61.1736-0.390381 59.8456 0.110107 58.2941 0.360352 56.519 0.360352ZM51.8945-12.0918 60.3628-12.0918C60.3227-13.4531 59.919-14.4708 59.1516-15.1448 58.3842-15.8188 57.3999-16.1558 56.1987-16.1558 54.9709-16.1558 53.9665-15.8088 53.1858-15.1147 52.405-14.4207 51.9746-13.4131 51.8945-12.0918ZM75.7721 0.340332C74.6644 0.340332 73.63 0.12679 72.6691-0.300293 71.7082-0.727376 70.9307-1.37134 70.3368-2.23218 69.7429-3.09302 69.446-4.17074 69.446-5.46533 69.446-7.26709 69.9865-8.62508 71.0675-9.53931 72.1486-10.4535 73.6601-11.0741 75.602-11.4011 77.5439-11.7281 79.8027-11.9183 82.3786-11.9717L82.3786-13.0127C82.3786-14.2806 82.0749-15.1481 81.4677-15.6152 80.8604-16.0824 80.0763-16.3159 79.1154-16.3159 78.061-16.3159 77.1935-16.0657 76.5129-15.5652 75.8322-15.0647 75.4919-14.2539 75.4919-13.1328L70.527-13.1328C70.527-14.8011 70.8907-16.1224 71.6181-17.0967 72.3455-18.071 73.3531-18.7716 74.641-19.1987 75.929-19.6258 77.4204-19.8394 79.1154-19.8394 80.3566-19.8394 81.491-19.7359 82.5187-19.5291 83.5464-19.3222 84.4372-18.9652 85.1913-18.458 85.9454-17.9508 86.5293-17.2602 86.943-16.386 87.3568-15.5118 87.5636-14.4207 87.5636-13.1128L87.5636 0 82.5988 0 82.4386-2.54248C81.6112-1.59489 80.6502-0.877523 79.5558-0.390381 78.4614 0.096761 77.2002 0.340332 75.7721 0.340332ZM77.5138-3.30322C78.5148-3.30322 79.439-3.56348 80.2865-4.08398 81.134-4.60449 81.8114-5.1984 82.3185-5.86572L82.3185-9.02881C79.5158-9.01546 77.5539-8.75187 76.4328-8.23804 75.3117-7.7242 74.7511-6.89339 74.7511-5.7456 74.7511-4.91813 75.008-4.3042 75.5219-3.90381 76.0357-3.50342 76.6997-3.30322 77.5138-3.30322ZM101.712 0C99.7365 0 98.205-0.236898 97.1173-0.710693 96.0295-1.18449 95.2721-1.91854 94.845-2.91284 94.418-3.90714 94.2044-5.20508 94.2044-6.80664L94.2044-15.4551 90.9613-15.4551 90.9613-19.5391 94.2044-19.5391 94.2044-24.1436 99.5096-24.1436 99.5096-19.5391 103.774-19.5391 103.774-15.4551 99.5096-15.4551 99.5096-7.12695C99.5096-6.09928 99.6531-5.33854 99.94-4.84473 100.227-4.35091 100.878-4.104 101.892-4.104L103.774-4.104 103.774 0ZM117.248 0.360352C115.073 0.360352 113.244-0.0433757 111.763-0.85083 110.281-1.65828 109.16-2.82275 108.4-4.34424 107.639-5.86572 107.258-7.69417 107.258-9.82959 107.258-11.8983 107.629-13.68 108.37-15.1748 109.11-16.6696 110.198-17.8207 111.633-18.6282 113.067-19.4356 114.833-19.8394 116.928-19.8394 119.837-19.8394 122.136-18.9885 123.825-17.2869 125.513-15.5852 126.357-13.1595 126.357-10.0098 126.357-9.84961 126.35-9.63273 126.337-9.35913 126.324-9.08553 126.304-8.87532 126.277-8.72851L112.564-8.72851C112.59-7.80762 112.76-6.94678 113.074-6.146 113.388-5.34521 113.885-4.70125 114.566-4.21411 115.246-3.72697 116.14-3.4834 117.248-3.4834 118.396-3.4834 119.317-3.73364 120.011-4.23413 120.705-4.73462 121.059-5.47868 121.072-6.46631L126.297-6.46631C126.23-4.94482 125.813-3.67692 125.046-2.6626 124.278-1.64827 123.231-0.890869 121.903-0.390381 120.575 0.110107 119.023 0.360352 117.248 0.360352ZM112.624-12.0918 121.092-12.0918C121.052-13.4531 120.648-14.4708 119.881-15.1448 119.113-15.8188 118.129-16.1558 116.928-16.1558 115.7-16.1558 114.696-15.8088 113.915-15.1147 113.134-14.4207 112.704-13.4131 112.624-12.0918Z" fill="#FFFFFF" transform="matrix(1 0 0 1 46.8877 72)"/></g></g><path d="M2956 1564.75 3099.12 1564.75 3099.12 1232.25 3070.5 1232.25 3127.75 1175 3185 1232.25 3156.38 1232.25 3156.38 1622 2956 1622Z" fill="url(#fill13)" fill-rule="evenodd"/><text fill="#FFFFFF" font-family="Aptos,Aptos_MSFontService,sans-serif" font-weight="700" font-size="41" transform="matrix(1 0 0 1 2991.89 1606)">Create</text><rect x="3700.5" y="847.5" width="377" height="330" stroke="#410C3B" stroke-width="6.875" stroke-miterlimit="8" fill="#A02B93"/><text fill="#FFFFFF" font-family="Aptos,Aptos_MSFontService,sans-serif" font-weight="700" font-size="64" transform="matrix(1 0 0 1 3751.69 956)">mw</text><text fill="#FFFFFF" font-family="Aptos,Aptos_MSFontService,sans-serif" font-weight="700" font-size="64" transform="matrix(1 0 0 1 3857.36 956)">::</text><text fill="#FFFFFF" font-family="Aptos,Aptos_MSFontService,sans-serif" font-weight="700" font-size="64" transform="matrix(1 0 0 1 3896.32 956)">com</text><text fill="#FFFFFF" font-family="Aptos,Aptos_MSFontService,sans-serif" font-weight="700" font-size="64" transform="matrix(1 0 0 1 3735.49 1033)">Consumer </text><text fill="#FFFFFF" font-family="Aptos,Aptos_MSFontService,sans-serif" font-weight="700" font-size="64" transform="matrix(1 0 0 1 3830.89 1110)">App</text><g filter="url(#fx6)" transform="translate(2410 947)"><g><path d="M22 87.3758 87.5005 21.8752 87.5005 54.6248 1254 54.6248 1254 120.125 87.5005 120.125 87.5005 152.875Z" fill="#FF0000" fill-rule="evenodd"/></g></g><g clip-path="url(#clip14)" filter="url(#fx7)" transform="translate(2927 975)"><g><path d="M15.1147 0.360352C12.3921 0.360352 10.0498-0.210205 8.08789-1.35132 6.12598-2.49243 4.61784-4.09399 3.56348-6.15601 2.50911-8.21802 1.98193-10.6504 1.98193-13.4531 1.98193-16.2559 2.50911-18.6949 3.56348-20.7703 4.61784-22.8456 6.12598-24.4539 8.08789-25.595 10.0498-26.7361 12.3921-27.3066 15.1147-27.3066 17.2235-27.3066 19.1654-26.9429 20.9404-26.2156 22.7155-25.4882 24.1569-24.4138 25.2646-22.9924 26.3724-21.571 26.9797-19.8193 27.0864-17.7373L21.3208-17.7373C21.174-18.8317 20.817-19.7393 20.2498-20.46 19.6825-21.1807 18.9585-21.7212 18.0776-22.0815 17.1968-22.4419 16.2091-22.6221 15.1147-22.6221 13.353-22.6221 11.935-22.195 10.8606-21.3408 9.78621-20.4867 9.00545-19.3689 8.51831-17.9875 8.03117-16.6062 7.7876-15.0947 7.7876-13.4531 7.7876-11.8249 8.03117-10.3167 8.51831-8.92871 9.00545-7.54069 9.78621-6.42627 10.8606-5.58545 11.935-4.74463 13.353-4.32422 15.1147-4.32422 16.9699-4.32422 18.4347-4.80135 19.509-5.75561 20.5834-6.70988 21.2007-8.06787 21.3608-9.82959L27.1265-9.82959C26.9663-7.62744 26.3857-5.76896 25.3848-4.25415 24.3838-2.73934 23.0158-1.59155 21.2808-0.810791 19.5457-0.0300293 17.4904 0.360352 15.1147 0.360352ZM40.9302 0.320312C38.9549 0.320312 37.2232-0.073405 35.7351-0.86084 34.247-1.64827 33.0959-2.78939 32.2817-4.28418 31.4676-5.77897 31.0605-7.5874 31.0605-9.70947 31.0605-11.8716 31.4676-13.71 32.2817-15.2249 33.0959-16.7397 34.247-17.8941 35.7351-18.6882 37.2232-19.4823 38.9549-19.8794 40.9302-19.8794 42.9321-19.8794 44.6772-19.4823 46.1653-18.6882 47.6534-17.8941 48.8112-16.7397 49.6387-15.2249 50.4661-13.71 50.8799-11.8716 50.8799-9.70947 50.8799-7.5874 50.4661-5.77897 49.6387-4.28418 48.8112-2.78939 47.6534-1.64827 46.1653-0.86084 44.6772-0.073405 42.9321 0.320312 40.9302 0.320312ZM40.9302-3.72363C42.0913-3.72363 43.0022-3.9939 43.6628-4.53442 44.3235-5.07495 44.7906-5.79899 45.0642-6.70654 45.3378-7.61409 45.4746-8.61507 45.4746-9.70947 45.4746-10.8306 45.3378-11.8516 45.0642-12.7725 44.7906-13.6934 44.3235-14.4274 43.6628-14.9746 43.0022-15.5218 42.0913-15.7954 40.9302-15.7954 39.7957-15.7954 38.9049-15.5218 38.2576-14.9746 37.6103-14.4274 37.1532-13.6934 36.8862-12.7725 36.6193-11.8516 36.4858-10.8306 36.4858-9.70947 36.4858-8.61507 36.6193-7.61409 36.8862-6.70654 37.1532-5.79899 37.6103-5.07495 38.2576-4.53442 38.9049-3.9939 39.7957-3.72363 40.9302-3.72363ZM55.5511 0 55.5511-19.5391 60.6561-19.5391 60.7562-16.6162C61.4101-17.457 62.271-18.2011 63.3387-18.8484 64.4064-19.4957 65.7944-19.8193 67.5028-19.8193 69.4914-19.8193 71.0329-19.2154 72.1273-18.0076 73.2217-16.7997 73.7689-15.0347 73.7689-12.7124L73.7689 0 68.5037 0 68.5037-12.0317C68.5037-12.7391 68.4036-13.3597 68.2034-13.8936 68.0033-14.4274 67.6863-14.8411 67.2525-15.1348 66.8188-15.4284 66.2482-15.5752 65.5408-15.5752 64.4865-15.5752 63.5823-15.3283 62.8282-14.8345 62.0741-14.3407 61.4168-13.7401 60.8563-13.0327L60.8563 0ZM87.4613 0.360352C86.3802 0.360352 85.3192 0.260254 84.2782 0.0600586 83.2371-0.140137 82.2962-0.483805 81.4554-0.970947 80.6146-1.45809 79.9473-2.12207 79.4534-2.96289 78.9596-3.80371 78.7127-4.8514 78.7127-6.10596L83.6375-6.10596C83.6375-5.01156 84.0212-4.25081 84.7887-3.82373 85.5561-3.39665 86.4536-3.18311 87.4813-3.18311 88.4956-3.18311 89.283-3.3466 89.8436-3.67358 90.4041-4.00057 90.6844-4.55111 90.6844-5.32519 90.6844-6.05924 90.3541-6.60644 89.6934-6.9668 89.0328-7.32715 87.875-7.69417 86.22-8.06787 84.832-8.40153 83.5941-8.80526 82.5064-9.27905 81.4187-9.75285 80.5679-10.3868 79.9539-11.1809 79.34-11.975 79.033-13.0194 79.033-14.314 79.033-15.3283 79.2666-16.1891 79.7337-16.8965 80.2008-17.6038 80.8248-18.1744 81.6055-18.6082 82.3863-19.0419 83.2672-19.3589 84.2481-19.5591 85.2291-19.7593 86.2334-19.8594 87.2611-19.8594 88.262-19.8594 89.243-19.7593 90.2039-19.5591 91.1649-19.3589 92.0324-19.0219 92.8065-18.5481 93.5806-18.0743 94.2012-17.437 94.6683-16.6362 95.1354-15.8354 95.369-14.8345 95.369-13.6333L90.4442-13.6333C90.4442-14.6343 90.1272-15.3283 89.4932-15.7153 88.8593-16.1024 88.1152-16.2959 87.2611-16.2959 86.3402-16.2959 85.6161-16.1624 85.0889-15.8955 84.5618-15.6286 84.2982-15.1881 84.2982-14.5742 84.2982-14.2139 84.465-13.8969 84.7987-13.6233 85.1323-13.3497 85.6662-13.0961 86.4002-12.8625 87.1343-12.629 88.1019-12.3787 89.3031-12.1118 90.571-11.8182 91.7054-11.4378 92.7064-10.9707 93.7074-10.5036 94.5015-9.8763 95.0887-9.08887 95.6759-8.30143 95.9696-7.28044 95.9696-6.02588 95.9696-4.8514 95.7327-3.8571 95.2589-3.04297 94.7851-2.22884 94.1511-1.57153 93.357-1.07104 92.5629-0.570557 91.6553-0.206868 90.6344 0.0200195 89.6134 0.246908 88.5557 0.360352 87.4613 0.360352ZM106.837 0.260254C104.862 0.260254 103.334-0.350342 102.253-1.57153 101.172-2.79272 100.631-4.53109 100.631-6.78662L100.631-19.5391 105.937-19.5391 105.937-7.42725C105.937-6.75993 106.033-6.16935 106.227-5.65552 106.42-5.14168 106.741-4.74463 107.188-4.46435 107.635-4.18408 108.225-4.04394 108.959-4.04394 110.027-4.04394 110.938-4.28084 111.692-4.75464 112.446-5.22843 113.104-5.80566 113.664-6.48633L113.664-19.5391 118.969-19.5391 118.969 0 113.844 0 113.764-2.94287C113.11-2.1154 112.216-1.37467 111.082-0.720703 109.947-0.0667318 108.532 0.260254 106.837 0.260254ZM124.874 0 124.874-19.5391 129.979-19.5391 130.079-16.6162C130.72-17.457 131.604-18.2011 132.732-18.8484 133.859-19.4957 135.251-19.8193 136.906-19.8193 138.868-19.8193 140.372-19.2021 141.42-17.9675 142.468-16.733 142.992-14.9813 142.992-12.7124L142.992 0 137.687 0 137.687-12.0317C137.687-12.7391 137.59-13.3597 137.396-13.8936 137.203-14.4274 136.889-14.8411 136.455-15.1348 136.022-15.4284 135.458-15.5752 134.764-15.5752 133.736-15.5752 132.855-15.3283 132.121-14.8345 131.387-14.3407 130.74-13.7401 130.179-13.0327L130.179 0ZM150.519 0 150.519-12.0317C150.519-12.7391 150.422-13.3597 150.229-13.8936 150.035-14.4274 149.722-14.8411 149.288-15.1348 148.854-15.4284 148.29-15.5752 147.596-15.5752 146.568-15.5752 145.684-15.3483 144.944-14.8945 144.203-14.4408 143.539-13.8735 142.952-13.1929L142.311-16.4761C143.152-17.3703 144.183-18.151 145.404-18.8184 146.625-19.4857 148.063-19.8193 149.718-19.8193 151.667-19.8193 153.172-19.2021 154.233-17.9675 155.294-16.733 155.824-14.9813 155.824-12.7124L155.824 0ZM170.529 0.360352C168.354 0.360352 166.526-0.0433757 165.044-0.85083 163.563-1.65828 162.442-2.82275 161.681-4.34424 160.92-5.86572 160.54-7.69417 160.54-9.82959 160.54-11.8983 160.91-13.68 161.651-15.1748 162.392-16.6696 163.479-17.8207 164.914-18.6282 166.349-19.4356 168.114-19.8394 170.209-19.8394 173.119-19.8394 175.418-18.9885 177.106-17.2869 178.794-15.5852 179.638-13.1595 179.638-10.0098 179.638-9.84961 179.632-9.63273 179.618-9.35913 179.605-9.08553 179.585-8.87532 179.558-8.72851L165.845-8.72851C165.872-7.80762 166.042-6.94678 166.355-6.146 166.669-5.34521 167.166-4.70125 167.847-4.21411 168.527-3.72697 169.422-3.4834 170.529-3.4834 171.677-3.4834 172.598-3.73364 173.292-4.23413 173.986-4.73462 174.34-5.47868 174.353-6.46631L179.578-6.46631C179.512-4.94482 179.094-3.67692 178.327-2.6626 177.56-1.64827 176.512-0.890869 175.184-0.390381 173.856 0.110107 172.305 0.360352 170.529 0.360352ZM165.905-12.0918 174.373-12.0918C174.333-13.4531 173.929-14.4708 173.162-15.1448 172.395-15.8188 171.41-16.1558 170.209-16.1558 168.981-16.1558 167.977-15.8088 167.196-15.1147 166.415-14.4207 165.985-13.4131 165.905-12.0918Z" fill="#FFFFFF" transform="matrix(1 0 0 1 46.6165 73)"/></g></g><path d="M2432 1027.5 2497.5 962 2497.5 994.75 3664 994.75 3664 1060.25 2497.5 1060.25 2497.5 1093Z" fill="url(#fill15)" fill-rule="evenodd"/><text fill="#FFFFFF" font-family="Aptos,Aptos_MSFontService,sans-serif" font-weight="700" font-size="41" transform="matrix(1 0 0 1 2973.62 1041)">Consume</text><path d="M1776.74 1736.05 2197.11 1736.05 2197.11 1744.58 2189.66 1737.13 2602.58 1737.13 2602.58 1752.03 2182.21 1752.03 2182.21 1743.5 2189.66 1750.95 1776.74 1750.95ZM1784.19 1765.84 1739.5 1743.5 1784.19 1721.16ZM2595.13 1722.24 2639.82 1744.58 2595.13 1766.92Z"/><text font-family="Aptos,Aptos_MSFontService,sans-serif" font-weight="700" font-size="83" transform="matrix(1 0 0 1 1984.55 1713)">Hypervisor</text><text fill="#FFFFFF" font-family="Aptos,Aptos_MSFontService,sans-serif" font-weight="700" font-size="83" transform="matrix(1 0 0 1 327.339 781)">OS Instance</text><text fill="#FFFFFF" font-family="Aptos,Aptos_MSFontService,sans-serif" font-weight="700" font-size="83" transform="matrix(1 0 0 1 2742.73 763)">OS Instance B</text><rect x="1582.5" y="1481.5" width="157" height="524" stroke="#1C440D" stroke-width="6.875" stroke-miterlimit="8" fill="#171717"/><text fill="#FFFFFF" font-family="Aptos,Aptos_MSFontService,sans-serif" font-weight="700" font-size="64" transform="matrix(6.12323e-17 -1 1 6.12323e-17 1681.08 1935)">VM Transport</text><rect x="2796.5" y="1481.5" width="157" height="524" stroke="#1C440D" stroke-width="6.875" stroke-miterlimit="8" fill="#4EA72E"/><text fill="#FFFFFF" font-family="Aptos,Aptos_MSFontService,sans-serif" font-weight="700" font-size="73" transform="matrix(6.12323e-17 -1 1 6.12323e-17 2898.53 1888)">Gateway</text><rect x="2639.5" y="1482.5" width="157" height="524" stroke="#1C440D" stroke-width="6.875" stroke-miterlimit="8" fill="#171717"/><text fill="#FFFFFF" font-family="Aptos,Aptos_MSFontService,sans-serif" font-weight="700" font-size="64" transform="matrix(6.12323e-17 -1 1 6.12323e-17 2738.11 1936)">VM Transport</text><text font-family="Aptos,Aptos_MSFontService,sans-serif" font-weight="700" font-size="83" transform="matrix(1 0 0 1 187.867 602)">Guest VM A</text><text fill="#FF0000" font-family="Aptos,Aptos_MSFontService,sans-serif" font-weight="700" font-size="83" transform="matrix(1 0 0 1 1941.21 732)">shared</text><text fill="#FF0000" font-family="Aptos,Aptos_MSFontService,sans-serif" font-weight="700" font-size="83" transform="matrix(1 0 0 1 2216.43 732)">across</text><text fill="#FF0000" font-family="Aptos,Aptos_MSFontService,sans-serif" font-weight="700" font-size="83" transform="matrix(1 0 0 1 2124.47 831)">VMs</text><rect x="1929" y="854" width="554" height="350" stroke="#FF0000" stroke-width="10.3125" stroke-miterlimit="8" fill="none"/></g></svg>