<svg width="4057" height="1719" xmlns="http://www.w3.org/2000/svg" xmlns:xlink="http://www.w3.org/1999/xlink" xml:space="preserve" overflow="hidden"><g transform="translate(-228 -462)"><rect x="2596.5" y="468.5" width="1666" height="1708" stroke="#042433" stroke-width="6.875" stroke-miterlimit="8" fill="#FFFFFF"/><rect x="250.5" y="468.5" width="1666" height="1709" stroke="#042433" stroke-width="6.875" stroke-miterlimit="8" fill="#FFFFFF"/><rect x="581.5" y="682.5" width="489" height="1323" stroke="#1C440D" stroke-width="6.875" stroke-miterlimit="8" fill="#4EA72E"/><text fill="#FFFFFF" font-family="Aptos,Aptos_MSFontService,sans-serif" font-weight="700" font-size="73" transform="matrix(6.12323e-17 -1 1 6.12323e-17 849.251 1576)">Gateway Core</text><rect x="1760.5" y="682.5" width="156" height="1323" stroke="#000000" stroke-width="6.875" stroke-miterlimit="8" fill="#46B1E1"/><text fill="#FFFFFF" font-family="Aptos,Aptos_MSFontService,sans-serif" font-weight="700" font-size="64" transform="matrix(6.12323e-17 -1 1 6.12323e-17 1858.53 1562)">Transport Layer</text><rect x="2596.5" y="682.5" width="157" height="1323" stroke="#000000" stroke-width="6.875" stroke-miterlimit="8" fill="#46B1E1"/><text fill="#FFFFFF" font-family="Aptos,Aptos_MSFontService,sans-serif" font-weight="700" font-size="64" transform="matrix(6.12323e-17 -1 1 6.12323e-17 2694.93 1562)">Transport Layer</text><rect x="3447.5" y="682.5" width="489" height="1323" stroke="#1C440D" stroke-width="6.875" stroke-miterlimit="8" fill="#4EA72E"/><text fill="#FFFFFF" font-family="Aptos,Aptos_MSFontService,sans-serif" font-weight="700" font-size="73" transform="matrix(6.12323e-17 -1 1 6.12323e-17 3715.67 1576)">Gateway Core</text><path d="M1081 866.125 1700.91 866.125 1700.91 879.875 1081 879.875ZM1694.04 852.375 1735.29 873 1694.04 893.625Z"/><text font-family="Aptos,Aptos_MSFontService,sans-serif" font-weight="400" font-size="83" transform="matrix(1 0 0 1 1126.76 811)">DoSomething</text><text font-family="Aptos,Aptos_MSFontService,sans-serif" font-weight="400" font-size="83" transform="matrix(1 0 0 1 1611.44 811)">()</text><path d="M1927 931.125 2546.91 931.125 2546.91 944.875 1927 944.875ZM2540.04 917.375 2581.29 938 2540.04 958.625Z"/><text font-family="Aptos,Aptos_MSFontService,sans-serif" font-weight="400" font-size="83" transform="matrix(1 0 0 1 1973.78 720)">TransportLayer</text><text font-family="Aptos,Aptos_MSFontService,sans-serif" font-weight="400" font-size="83" transform="matrix(1 0 0 1 2098.52 819)">specific</text><path d="M2775 1320.12 3394.91 1320.13 3394.91 1333.88 2775 1333.87ZM3388.04 1306.38 3429.29 1327 3388.04 1347.63Z"/><text font-family="Aptos,Aptos_MSFontService,sans-serif" font-weight="400" font-size="83" transform="matrix(1 0 0 1 2820.31 1287)">DoSomething</text><text font-family="Aptos,Aptos_MSFontService,sans-serif" font-weight="400" font-size="83" transform="matrix(1 0 0 1 3305 1287)">‘()</text><text font-family="Aptos,Aptos_MSFontService,sans-serif" font-weight="400" font-size="83" transform="matrix(1 0 0 1 277.577 574)">Domain A</text><text font-family="Aptos,Aptos_MSFontService,sans-serif" font-weight="400" font-size="83" transform="matrix(1 0 0 1 3887.48 563)">Domain </text><text font-family="Aptos,Aptos_MSFontService,sans-serif" font-weight="400" font-size="83" transform="matrix(1 0 0 1 4185.39 563)">B</text><path d="M3.84169e-06-6.875 55-6.87497 55 6.87503-3.84169e-06 6.875ZM96.25-6.87495 151.25-6.87492 151.25 6.87508 96.25 6.87505ZM192.5-6.87489 247.5-6.87486 247.5 6.87514 192.5 6.87511ZM288.75-6.87484 343.75-6.87481 343.75 6.87519 288.75 6.87516ZM385-6.87478 440-6.87475 440 6.87525 385 6.87522ZM481.25-6.87473 536.25-6.8747 536.25 6.8753 481.25 6.87527ZM577.5-6.87468 611.471-6.87466 611.471 6.87534 577.5 6.87532ZM604.595-20.6247 645.845 0.000360892 604.595 20.6253Z" transform="matrix(-1 0 0 1 2561.85 993)"/><path d="M1933 1068.12 2552.91 1068.13 2552.91 1081.88 1933 1081.87ZM2546.04 1054.38 2587.29 1075 2546.04 1095.63Z"/><path d="M3.84169e-06-6.875 55-6.87497 55 6.87503-3.84169e-06 6.875ZM96.25-6.87495 151.25-6.87492 151.25 6.87508 96.25 6.87505ZM192.5-6.87489 247.5-6.87486 247.5 6.87514 192.5 6.87511ZM288.75-6.87484 343.75-6.87481 343.75 6.87519 288.75 6.87516ZM385-6.87478 440-6.87475 440 6.87525 385 6.87522ZM481.25-6.87473 536.25-6.8747 536.25 6.8753 481.25 6.87527ZM577.5-6.87468 611.471-6.87466 611.471 6.87534 577.5 6.87532ZM604.595-20.6247 645.845 0.000360892 604.595 20.6253Z" transform="matrix(-1 0 0 1 2566.84 1130)"/><path d="M1939 1201.12 2558.91 1201.13 2558.91 1214.88 1939 1214.87ZM2552.04 1187.38 2593.29 1208 2552.04 1228.63Z"/><path d="M3.84169e-06-6.875 55-6.87497 55 6.87503-3.84169e-06 6.875ZM96.25-6.87495 151.25-6.87492 151.25 6.87508 96.25 6.87505ZM192.5-6.87489 247.5-6.87486 247.5 6.87514 192.5 6.87511ZM288.75-6.87484 343.75-6.87481 343.75 6.87519 288.75 6.87516ZM385-6.87478 440-6.87475 440 6.87525 385 6.87522ZM481.25-6.87473 536.25-6.8747 536.25 6.8753 481.25 6.87527ZM577.5-6.87468 611.471-6.87466 611.471 6.87534 577.5 6.87532ZM604.595-20.6247 645.845 0.000360892 604.595 20.6253Z" transform="matrix(-1 0 0 1 2572.85 1263)"/></g></svg>