<svg width="3793" height="1716" xmlns="http://www.w3.org/2000/svg" xmlns:xlink="http://www.w3.org/1999/xlink" xml:space="preserve" overflow="hidden"><g transform="translate(-228 -465)"><rect x="250.5" y="468.5" width="1757" height="1709" stroke="#042433" stroke-width="6.875" stroke-miterlimit="8" fill="#FFFFFF"/><rect x="2660.5" y="489.5" width="1357" height="1667" stroke="#042433" stroke-width="6.875" stroke-miterlimit="8" fill="#FFFFFF"/><rect x="1211.5" y="682.5" width="489" height="1323" stroke="#1C440D" stroke-width="6.875" stroke-miterlimit="8" fill="#4EA72E"/><text fill="#FFFFFF" font-family="Aptos,Aptos_MSFontService,sans-serif" font-weight="700" font-size="73" transform="matrix(6.12323e-17 -1 1 6.12323e-17 1479.25 1576)">Gateway Core</text><rect x="1760.5" y="682.5" width="156" height="1323" stroke="#000000" stroke-width="6.875" stroke-miterlimit="8" fill="#46B1E1"/><text fill="#FFFFFF" font-family="Aptos,Aptos_MSFontService,sans-serif" font-weight="700" font-size="64" transform="matrix(6.12323e-17 -1 1 6.12323e-17 1858.53 1562)">Transport Layer</text><rect x="383.5" y="817.5" width="330" height="259" stroke="#410C3B" stroke-width="6.875" stroke-miterlimit="8" fill="#A02B93"/><text fill="#FFFFFF" font-family="Aptos,Aptos_MSFontService,sans-serif" font-weight="400" font-size="64" transform="matrix(1 0 0 1 427.106 967)">Skeleton</text><path d="M0 0 705.684 0.000721785" stroke="#000000" stroke-width="6.875" stroke-linejoin="round" stroke-miterlimit="10" stroke-dasharray="27.5 20.625" fill="none" fill-rule="evenodd" transform="matrix(1 0 0 -1 1211.5 1343.5)"/><rect x="383.5" y="1565.5" width="330" height="258" stroke="#622C0F" stroke-width="6.875" stroke-miterlimit="8" fill="#E97132"/><text fill="#FFFFFF" font-family="Aptos,Aptos_MSFontService,sans-serif" font-weight="400" font-size="64" transform="matrix(1 0 0 1 472.962 1715)">Proxy</text><path d="M744.5 952 833 863.5 833 907.75 1251.5 907.75 1251.5 996.25 833 996.25 833 1040.5Z" stroke="#042433" stroke-width="6.875" stroke-miterlimit="8" fill-rule="evenodd"/><text fill="#FFFFFF" font-family="Aptos,Aptos_MSFontService,sans-serif" font-weight="400" font-size="50" transform="matrix(1 0 0 1 913.376 968)">Consume</text><rect x="1267.5" y="1599.5" width="383" height="190" stroke="#042433" stroke-width="6.875" stroke-miterlimit="8" fill="#8ED973"/><text font-family="Aptos,Aptos_MSFontService,sans-serif" font-weight="400" font-size="73" transform="matrix(1 0 0 1 1323.82 1718)">skeleton</text><rect x="1267.5" y="844.5" width="383" height="190" stroke="#042433" stroke-width="6.875" stroke-miterlimit="8" fill="#8ED973"/><text font-family="Aptos,Aptos_MSFontService,sans-serif" font-weight="400" font-size="73" transform="matrix(1 0 0 1 1373.06 963)">proxy</text><path d="M730.5 1696.5 819.5 1607.5 819.5 1652 1237.5 1652 1237.5 1741 819.5 1741 819.5 1785.5Z" stroke="#042433" stroke-width="6.875" stroke-miterlimit="8" fill-rule="evenodd"/><text fill="#FFFFFF" font-family="Aptos,Aptos_MSFontService,sans-serif" font-weight="400" font-size="50" transform="matrix(1 0 0 1 924.11 1712)">Provide</text><path d="M1672.5 895.251 2744 895.251 2744 840.5 2853.5 950 2744 1059.5 2744 1004.75 1672.5 1004.75Z" stroke="#042433" stroke-width="6.875" stroke-miterlimit="8" fill-rule="evenodd"/><text fill="#FFFFFF" font-family="Aptos,Aptos_MSFontService,sans-serif" font-weight="400" font-size="50" transform="matrix(1 0 0 1 2033.82 966)">Service </text><text fill="#FFFFFF" font-family="Aptos,Aptos_MSFontService,sans-serif" font-weight="400" font-size="50" transform="matrix(1 0 0 1 2203.41 966)">forwarding</text><path d="M1659.5 1702.5 1769.5 1592.5 1769.5 1647.5 2830.5 1647.5 2830.5 1757.5 1769.5 1757.5 1769.5 1812.5Z" stroke="#042433" stroke-width="6.875" stroke-miterlimit="8" fill-rule="evenodd"/><text fill="#FFFFFF" font-family="Aptos,Aptos_MSFontService,sans-serif" font-weight="400" font-size="50" transform="matrix(1 0 0 1 2089.6 1719)">Service </text><text fill="#FFFFFF" font-family="Aptos,Aptos_MSFontService,sans-serif" font-weight="400" font-size="50" transform="matrix(1 0 0 1 2259.18 1719)">receiving</text><text font-family="Aptos,Aptos_MSFontService,sans-serif" font-weight="400" font-size="83" transform="matrix(1 0 0 1 2693 590)">Domain B</text><text font-family="Aptos,Aptos_MSFontService,sans-serif" font-weight="400" font-size="83" transform="matrix(1 0 0 1 277.577 574)">Domain A</text></g></svg>