<?xml version="1.0" encoding="us-ascii" standalone="no"?><svg xmlns="http://www.w3.org/2000/svg" xmlns:xlink="http://www.w3.org/1999/xlink" contentStyleType="text/css" height="633px" preserveAspectRatio="none" style="width:488px;height:633px;background:#FAFAFA;" version="1.1" viewBox="0 0 488 633" width="488px" zoomAndPan="magnify"><defs/><g><rect fill="#FAFAFA" height="633" style="stroke:none;stroke-width:1.0;" width="488" x="0" y="0"/><!--cluster RUNTIMES--><g id="cluster_RUNTIMES"><rect fill="none" height="104" rx="2.5" ry="2.5" style="stroke:#181818;stroke-width:1.0;" width="361" x="16" y="238"/><text fill="#000000" font-family="sans-serif" font-size="12" font-weight="bold" lengthAdjust="spacing" textLength="58" x="167.5" y="252.8281">Runtimes</text></g><!--cluster ABSTRACTION--><g id="cluster_ABSTRACTION"><rect fill="none" height="235" rx="2.5" ry="2.5" style="stroke:#181818;stroke-width:1.0;" width="162" x="210" y="392"/><text fill="#000000" font-family="sans-serif" font-size="12" font-weight="bold" lengthAdjust="spacing" textLength="69" x="256.5" y="406.8281">Abstraction</text></g><!--entity RUNTIME_LOLA--><g id="elem_RUNTIME_LOLA"><rect fill="#FFCCBC" height="52.6882" rx="2.5" ry="2.5" style="stroke:#181818;stroke-width:0.5;" width="145" x="32.5" y="273"/><text fill="#000000" font-family="sans-serif" font-size="12" lengthAdjust="spacing" textLength="117" x="46.5" y="295.8281">com-api-runtime-lola</text><text fill="#000000" font-family="sans-serif" font-size="12" lengthAdjust="spacing" textLength="125" x="42.5" y="312.1722">(LoLa implementation)</text></g><!--entity RUNTIME_MOCK--><g id="elem_RUNTIME_MOCK"><rect fill="#FFCCBC" height="52.6882" rx="2.5" ry="2.5" style="stroke:#181818;stroke-width:0.5;" width="149" x="212.5" y="273"/><text fill="#000000" font-family="sans-serif" font-size="12" lengthAdjust="spacing" textLength="127" x="223.5" y="295.8281">com-api-runtime-mock</text><text fill="#000000" font-family="sans-serif" font-size="12" lengthAdjust="spacing" textLength="129" x="222.5" y="312.1722">(mock implementation)</text></g><!--entity score_com_concept--><g id="elem_score_com_concept"><rect fill="#C8E6C9" height="52.6882" rx="2.5" ry="2.5" style="stroke:#181818;stroke-width:0.5;" width="129" x="226.5" y="427"/><text fill="#000000" font-family="sans-serif" font-size="12" lengthAdjust="spacing" textLength="109" x="236.5" y="449.8281">score_com_concept</text><text fill="#000000" font-family="sans-serif" font-size="12" lengthAdjust="spacing" textLength="82" x="250" y="466.1722">(traits &amp; types)</text></g><!--entity MACROS--><g id="elem_MACROS"><rect fill="#C8E6C9" height="52.6882" rx="2.5" ry="2.5" style="stroke:#181818;stroke-width:0.5;" width="127" x="227.5" y="558"/><text fill="#000000" font-family="sans-serif" font-size="12" lengthAdjust="spacing" textLength="107" x="237.5" y="580.8281">score_com_macros</text><text fill="#000000" font-family="sans-serif" font-size="12" lengthAdjust="spacing" textLength="88" x="247" y="597.1722">(derive macros)</text></g><!--entity APP--><g id="elem_APP"><rect fill="#E1F5FE" height="36.3441" rx="2.5" ry="2.5" style="stroke:#181818;stroke-width:0.5;" width="144" x="215" y="7"/><text fill="#000000" font-family="sans-serif" font-size="12" lengthAdjust="spacing" textLength="124" x="225" y="29.8281">User Application Code</text></g><!--entity FACADE--><g id="elem_FACADE"><rect fill="#C8E6C9" height="52.6882" rx="2.5" ry="2.5" style="stroke:#181818;stroke-width:0.5;" width="139" x="217.5" y="121"/><text fill="#000000" font-family="sans-serif" font-size="12" lengthAdjust="spacing" textLength="60" x="257" y="143.8281">score_com</text><text fill="#000000" font-family="sans-serif" font-size="12" lengthAdjust="spacing" textLength="119" x="227.5" y="160.1722">(re-exports &amp; facade)</text></g><!--entity FFI--><g id="elem_FFI"><rect fill="#FFE0B2" height="52.6882" rx="2.5" ry="2.5" style="stroke:#181818;stroke-width:0.5;" width="136" x="29" y="427"/><text fill="#000000" font-family="sans-serif" font-size="12" lengthAdjust="spacing" textLength="84" x="55" y="449.8281">com-api-ffi-lola</text><text fill="#000000" font-family="sans-serif" font-size="12" lengthAdjust="spacing" textLength="116" x="39" y="466.1722">(C++/Rust FFI bridge)</text></g><!--entity CPP--><g id="elem_CPP"><rect fill="#D1C4E9" height="36.3441" rx="2.5" ry="2.5" style="stroke:#181818;stroke-width:0.5;" width="180" x="7" y="566.5"/><text fill="#000000" font-family="sans-serif" font-size="12" lengthAdjust="spacing" textLength="160" x="17" y="589.3281">MW::COM (LoLa) C++ Library</text></g><!--link APP to FACADE--><g id="link_APP_FACADE"><path d="M287,43.01 C287,63.25 287,91.25 287,114.73 " fill="none" id="APP-to-FACADE" style="stroke:#333333;stroke-width:1.0;"/><polygon fill="#333333" points="287,120.73,291,111.73,287,115.73,283,111.73,287,120.73" style="stroke:#333333;stroke-width:1.0;"/><text fill="#000000" font-family="sans-serif" font-size="12" lengthAdjust="spacing" textLength="26" x="288" y="86.8281">uses</text></g><!--link FACADE to RUNTIME_LOLA--><g id="link_FACADE_RUNTIME_LOLA"><path d="M251.04,174.14 C238.51,183.33 224.47,193.91 212,204 C184.25,226.45 158.3029,249.4966 137.0229,268.9066 " fill="none" id="FACADE-to-RUNTIME_LOLA" style="stroke:#333333;stroke-width:1.0;"/><polygon fill="#333333" points="132.59,272.95,141.935,269.8402,136.2841,269.5805,136.5438,263.9296,132.59,272.95" style="stroke:#333333;stroke-width:1.0;"/><text fill="#000000" font-family="sans-serif" font-size="12" lengthAdjust="spacing" textLength="65" x="213" y="217.8281">instantiates</text></g><!--link FACADE to RUNTIME_MOCK--><g id="link_FACADE_RUNTIME_MOCK"><path d="M287,174.29 C287,201.76 287,239.01 287,266.55 " fill="none" id="FACADE-to-RUNTIME_MOCK" style="stroke:#333333;stroke-width:1.0;"/><polygon fill="#333333" points="287,272.55,291,263.55,287,267.55,283,263.55,287,272.55" style="stroke:#333333;stroke-width:1.0;"/><text fill="#000000" font-family="sans-serif" font-size="12" lengthAdjust="spacing" textLength="97" x="288" y="217.8281">instantiates (test)</text></g><!--link FACADE to score_com_concept--><g id="link_FACADE_score_com_concept"><path d="M356.58,170.69 C371.42,178.77 385.25,189.6 394,204 C434.31,270.31 408.63,312.52 364,376 C351.01,394.47 337.9529,408.6685 323.4229,422.7885 " fill="none" id="FACADE-to-score_com_concept" style="stroke:#333333;stroke-width:1.0;"/><polygon fill="#333333" points="319.12,426.97,328.362,423.5664,322.7058,423.4854,322.7867,417.8291,319.12,426.97" style="stroke:#333333;stroke-width:1.0;"/><text fill="#000000" font-family="sans-serif" font-size="12" lengthAdjust="spacing" textLength="65" x="415" y="304.3281">depends on</text></g><!--link RUNTIME_LOLA to score_com_concept--><g id="link_RUNTIME_LOLA_score_com_concept"><path d="M136.55,326.28 C170.86,354.32 220.714,395.0634 254.954,423.0434 " fill="none" id="RUNTIME_LOLA-to-score_com_concept" style="stroke:#333333;stroke-width:1.0;"/><polygon fill="#333333" points="259.6,426.84,255.162,418.0477,255.7283,423.6762,250.0999,424.2424,259.6,426.84" style="stroke:#333333;stroke-width:1.0;"/><text fill="#000000" font-family="sans-serif" font-size="12" lengthAdjust="spacing" textLength="66" x="193" y="371.8281">implements</text></g><!--link RUNTIME_MOCK to score_com_concept--><g id="link_RUNTIME_MOCK_score_com_concept"><path d="M287.68,326.28 C288.42,354.32 289.4335,392.862 290.1635,420.842 " fill="none" id="RUNTIME_MOCK-to-score_com_concept" style="stroke:#333333;stroke-width:1.0;"/><polygon fill="#333333" points="290.32,426.84,294.0839,417.7387,290.1896,421.8417,286.0866,417.9474,290.32,426.84" style="stroke:#333333;stroke-width:1.0;"/><text fill="#000000" font-family="sans-serif" font-size="12" lengthAdjust="spacing" textLength="66" x="289" y="371.8281">implements</text></g><!--link RUNTIME_LOLA to FFI--><g id="link_RUNTIME_LOLA_FFI"><path d="M99.03,326.11 C97,336.01 95,347.48 94,358 C91.8,381.2 92.495,401.758 93.975,420.798 " fill="none" id="RUNTIME_LOLA-to-FFI" style="stroke:#333333;stroke-width:1.0;"/><polygon fill="#333333" points="94.44,426.78,97.7305,417.4971,94.0525,421.795,89.7546,418.1171,94.44,426.78" style="stroke:#333333;stroke-width:1.0;"/><text fill="#000000" font-family="sans-serif" font-size="12" lengthAdjust="spacing" textLength="44" x="95" y="371.8281">calls via</text></g><!--link score_com_concept to MACROS--><g id="link_score_com_concept_MACROS"><path d="M291,480.3 C291,502.79 291,529.26 291,551.75 " fill="none" id="score_com_concept-to-MACROS" style="stroke:#333333;stroke-width:1.0;"/><polygon fill="#333333" points="291,557.75,295,548.75,291,552.75,287,548.75,291,557.75" style="stroke:#333333;stroke-width:1.0;"/><text fill="#000000" font-family="sans-serif" font-size="12" lengthAdjust="spacing" textLength="26" x="292" y="523.8281">uses</text></g><!--link FFI to CPP--><g id="link_FFI_CPP"><path d="M97,480.3 C97,505.88 97,538.36 97,560.39 " fill="none" id="FFI-to-CPP" style="stroke:#333333;stroke-width:1.0;"/><polygon fill="#333333" points="97,566.39,101,557.39,97,561.39,93,557.39,97,566.39" style="stroke:#333333;stroke-width:1.0;"/><text fill="#000000" font-family="sans-serif" font-size="12" lengthAdjust="spacing" textLength="42" x="98" y="523.8281">invokes</text></g><!--SRC=[bLJlRzem4FsUl-BKIYke2hHigxPegfIwYOJ6ZmhejW-JAkCumIAn8zj0sRJ_VUS06HbhfGM5oFPxx-xUsRu0eigj5jd2GekreNVLky4fQRMOhwpI1gm2k-0GiLoKXaEiLZAXLYZfNNWNCEMyMXwDPtqIGIfotZ9jI8JPAV04Di8k42CCR9HUGgeqq2GHJeBcA24aJXML96YUKPq8cG6hqr8RoRLPYB9JHPmvfLAhJDC2g4ogy9GnLPHKRXqLjRWMD3T0DSTHWkjhAd8wppbWzbmx3aeXh32WqaeYB2d3pq0mBh7EBnZJPTJhNC5c8TW2CEmV6MgH_sbXRMc2RdUpsNHenUyedNNpdORf3j2JqJJoKUHsPzV3_JT_7yBl9rnQaGgkWtrq1_GyinIofAwyEMNBJ3l7YShHj_CuTByZHC9JkifjZ1sRYXyShdj7Yw7MQhDdlgsUeqKCkAGPdzejbgCvirHcEJ-Ldl5d6-OYamLc2vWvkkPvDG7E7WqQ6fObLhrh8b49FmDg87nuWFFeEduVHms6OKhp9-pOTzdItEVFfTBMm1j8ASDkjIjo79BmFe9pyY6w8HyR_CaAVIkugN2Jnz6iFuocyDC3E0AXl4zBuUiTsCzLJZ7UG0qeYABCkQkdIhXzhFCq60z2D3ecv8wyhbWejaH5ztbLSJWcdsl5NurAmZcU4yeSP-VOtNGs2SciFnxzNKzj6hwIyT9YQEIAoZYxBRdPHJt1rHQ-85TGffL1DJmOOkqEZ1lln8OXcOodjK8p-OCVQIeExfBBo-vaPIp4SH_cMYJPePiuHWkYgxjUGsFuDGZ8U0XLNzg0V3o1Sqtrjg8HjuFkhycx27U0sqw-VtlO6G6iy8nv-v5RQBGmm8l5O1Why3hu9wpgInC6BVopxMFqgPy17esIomIl3karOhw4htU7yHh1_mDVwpid0s0qn_jjBQXtodUeVUCE7Y77pJexNS5hjSJPtm00]--></g></svg>