<?xml version="1.0" encoding="us-ascii" standalone="no"?><svg xmlns="http://www.w3.org/2000/svg" xmlns:xlink="http://www.w3.org/1999/xlink" contentStyleType="text/css" height="809px" preserveAspectRatio="none" style="width:2429px;height:809px;background:#FAFAFA;" version="1.1" viewBox="0 0 2429 809" width="2429px" zoomAndPan="magnify"><defs/><g><rect fill="#FAFAFA" height="809" style="stroke:none;stroke-width:1.0;" width="2429" x="0" y="0"/><!--cluster LAYER1--><g id="cluster_LAYER1"><rect fill="#E1F5FE" height="156" rx="2.5" ry="2.5" style="stroke:#181818;stroke-width:1.0;" width="321" x="463" y="7"/><text fill="#000000" font-family="sans-serif" font-size="12" font-weight="bold" lengthAdjust="spacing" textLength="124" x="561.5" y="21.8281">APPLICATION LAYER</text></g><!--cluster USER_APP--><g id="cluster_USER_APP"><rect fill="none" height="73" rx="2.5" ry="2.5" style="stroke:#181818;stroke-width:1.0;" width="249" x="503" y="58"/><text fill="#000000" font-family="sans-serif" font-size="12" font-weight="bold" lengthAdjust="spacing" textLength="99" x="578" y="72.8281">User Application</text></g><!--cluster LAYER2--><g id="cluster_LAYER2"><rect fill="#C8E6C9" height="278" rx="2.5" ry="2.5" style="stroke:#181818;stroke-width:1.0;" width="410" x="555" y="229"/><text fill="#000000" font-family="sans-serif" font-size="12" font-weight="bold" lengthAdjust="spacing" textLength="126" x="697" y="243.8281">ABSTRACTION LAYER</text></g><!--cluster LAYER3--><g id="cluster_LAYER3"><rect fill="#FFCCBC" height="106" rx="2.5" ry="2.5" style="stroke:#181818;stroke-width:1.0;" width="306" x="1005" y="229"/><text fill="#000000" font-family="sans-serif" font-size="12" font-weight="bold" lengthAdjust="spacing" textLength="97" x="1109.5" y="243.8281">RUNTIME LAYER</text></g><!--cluster LAYER4--><g id="cluster_LAYER4"><rect fill="#FFE0B2" height="106" rx="2.5" ry="2.5" style="stroke:#181818;stroke-width:1.0;" width="259" x="1007" y="401"/><text fill="#000000" font-family="sans-serif" font-size="12" font-weight="bold" lengthAdjust="spacing" textLength="108" x="1082.5" y="415.8281">FFI BRIDGE LAYER</text></g><!--cluster LAYER5--><g id="cluster_LAYER5"><rect fill="#D1C4E9" height="402.5" rx="2.5" ry="2.5" style="stroke:#181818;stroke-width:1.0;" width="242" x="1728" y="401"/><text fill="#000000" font-family="sans-serif" font-size="12" font-weight="bold" lengthAdjust="spacing" textLength="220" x="1739" y="415.8281">C++ IMPLEMENTATION LAYER for FFI</text></g><!--entity USER_CODE--><g id="elem_USER_CODE"><rect fill="#F1F1F1" height="22.3441" rx="2.5" ry="2.5" style="stroke:#181818;stroke-width:0.5;" width="56" x="680" y="93"/><text fill="#000000" font-family="sans-serif" font-size="12" lengthAdjust="spacing" textLength="36" x="690" y="108.8281">main()</text></g><!--entity USER_MONITOR--><g id="elem_USER_MONITOR"><rect fill="#F1F1F1" height="22.3441" rx="2.5" ry="2.5" style="stroke:#181818;stroke-width:0.5;" width="125" x="519.5" y="93"/><text fill="#000000" font-family="sans-serif" font-size="12" lengthAdjust="spacing" textLength="105" x="529.5" y="108.8281">VehicleMonitor&lt;R&gt;</text></g><!--entity TRAITS--><g id="elem_TRAITS"><rect fill="#F1F1F1" height="38.6882" rx="2.5" ry="2.5" style="stroke:#181818;stroke-width:0.5;" width="202" x="669" y="444"/><text fill="#000000" font-family="sans-serif" font-size="12" lengthAdjust="spacing" textLength="182" x="679" y="459.8281">Concept Traits(com-api-concept)</text><text fill="#000000" font-family="sans-serif" font-size="12" lengthAdjust="spacing" textLength="170" x="685" y="476.1722">Runtime, Subscriber, Publisher</text></g><!--entity GEN_API--><g id="elem_GEN_API"><rect fill="#F1F1F1" height="38.6882" rx="2.5" ry="2.5" style="stroke:#181818;stroke-width:0.5;" width="343" x="598.5" y="272"/><text fill="#000000" font-family="sans-serif" font-size="12" lengthAdjust="spacing" textLength="320" x="611.5" y="287.8281">Interface specific type(generated-code-interface-specific)</text><text fill="#000000" font-family="sans-serif" font-size="12" lengthAdjust="spacing" textLength="172" x="684" y="304.1722">Consumer, Producer, Interface</text></g><!--entity RUNTIME_BUILD--><g id="elem_RUNTIME_BUILD"><rect fill="#F1F1F1" height="38.6882" rx="2.5" ry="2.5" style="stroke:#181818;stroke-width:0.5;" width="239" x="1028.5" y="272"/><text fill="#000000" font-family="sans-serif" font-size="12" lengthAdjust="spacing" textLength="219" x="1038.5" y="287.8281">LolaRuntimeImpl(com-api-runtime-lola)</text><text fill="#000000" font-family="sans-serif" font-size="12" lengthAdjust="spacing" textLength="124" x="1086" y="304.1722">Trait Implementations</text></g><!--entity FFI_BRIDGE--><g id="elem_FFI_BRIDGE"><rect fill="#F1F1F1" height="38.6882" rx="2.5" ry="2.5" style="stroke:#181818;stroke-width:0.5;" width="191" x="1050.5" y="444"/><text fill="#000000" font-family="sans-serif" font-size="12" lengthAdjust="spacing" textLength="168" x="1060.5" y="459.8281">Rust-C++ Bindings with help of</text><text fill="#000000" font-family="sans-serif" font-size="12" lengthAdjust="spacing" textLength="75" x="1110" y="476.1722">Type Registry</text></g><!--entity CPP_CODE--><g id="elem_CPP_CODE"><rect fill="#F1F1F1" height="38.6882" rx="2.5" ry="2.5" style="stroke:#181818;stroke-width:0.5;" width="137" x="1775.5" y="444"/><text fill="#000000" font-family="sans-serif" font-size="12" lengthAdjust="spacing" textLength="117" x="1785.5" y="459.8281">Generated C++ Code</text><text fill="#000000" font-family="sans-serif" font-size="12" lengthAdjust="spacing" textLength="72" x="1808" y="476.1722">Type Exports</text></g><!--entity FFI_SUPPORT--><g id="elem_FFI_SUPPORT"><rect fill="#F1F1F1" height="38.6882" rx="2.5" ry="2.5" style="stroke:#181818;stroke-width:0.5;" width="183" x="1752.5" y="605.5"/><text fill="#000000" font-family="sans-serif" font-size="12" lengthAdjust="spacing" textLength="163" x="1762.5" y="621.3281">C++ Macro and Type Registry</text><text fill="#000000" font-family="sans-serif" font-size="12" lengthAdjust="spacing" textLength="63" x="1812.5" y="637.6722">FFI Support</text></g><!--entity CPP_CLASSES--><g id="elem_CPP_CLASSES"><rect fill="#F1F1F1" height="38.6882" rx="2.5" ry="2.5" style="stroke:#181818;stroke-width:0.5;" width="146" x="1771" y="740.5"/><text fill="#000000" font-family="sans-serif" font-size="12" lengthAdjust="spacing" textLength="97" x="1795.5" y="756.3281">C++ mw::com API</text><text fill="#000000" font-family="sans-serif" font-size="12" lengthAdjust="spacing" textLength="126" x="1781" y="772.6722">Proxy/Skeleton, Events</text></g><g id="elem_GMN6"><path d="M6,262 L6,321.0323 L430,321.0323 L430,272 L420,262 L6,262 " fill="#FEFFDD" style="stroke:#181818;stroke-width:0.5;"/><path d="M420,262 L420,272 L430,272 L420,262 " fill="#FEFFDD" style="stroke:#181818;stroke-width:1.0;"/><text fill="#000000" font-family="sans-serif" font-size="12" lengthAdjust="spacing" textLength="248" x="89.5" y="279.8281">Application code using generic runtime APIs,</text><text fill="#000000" font-family="sans-serif" font-size="12" lengthAdjust="spacing" textLength="182" x="122.5" y="296.1722">which are platform-independent.</text><text fill="#000000" font-family="sans-serif" font-size="12" lengthAdjust="spacing" textLength="403" x="12" y="312.5163">main() function initializes the runtime and sets up producers/consumers.</text></g><g id="elem_GMN12"><path d="M63.5,426 L63.5,501.3765 L530.5,501.3765 L530.5,436 L520.5,426 L63.5,426 " fill="#FEFFDD" style="stroke:#181818;stroke-width:0.5;"/><path d="M520.5,426 L520.5,436 L530.5,436 L520.5,426 " fill="#FEFFDD" style="stroke:#181818;stroke-width:1.0;"/><text fill="#000000" font-family="sans-serif" font-size="12" lengthAdjust="spacing" textLength="378" x="103.5" y="443.8281">Abstraction layer defining generic traits and interfaces for COM API.</text><text fill="#000000" font-family="sans-serif" font-size="12" lengthAdjust="spacing" textLength="324" x="130.5" y="460.1722">It includes concept traits for communication backends and</text><text fill="#000000" font-family="sans-serif" font-size="12" lengthAdjust="spacing" textLength="361" x="112" y="476.5163">generated interface-specific types for consumers and producers.</text><text fill="#000000" font-family="sans-serif" font-size="12" lengthAdjust="spacing" textLength="446" x="69.5" y="492.8604">It is independent of any specific runtime implementation, and interface oriented.</text></g><g id="elem_GMN17"><path d="M1290,417.5 L1290,509.2206 L1704,509.2206 L1704,427.5 L1694,417.5 L1290,417.5 " fill="#FEFFDD" style="stroke:#181818;stroke-width:0.5;"/><path d="M1694,417.5 L1694,427.5 L1704,427.5 L1694,417.5 " fill="#FEFFDD" style="stroke:#181818;stroke-width:1.0;"/><text fill="#000000" font-family="sans-serif" font-size="12" lengthAdjust="spacing" textLength="316" x="1334.5" y="435.3281">This contains the concrete LoLa runtime implementation,</text><text fill="#000000" font-family="sans-serif" font-size="12" lengthAdjust="spacing" textLength="393" x="1296" y="451.6722">This layer is responsible for all runtime operations of lola specific logic.</text><text fill="#000000" font-family="sans-serif" font-size="12" lengthAdjust="spacing" textLength="292" x="1346.5" y="468.0163">It implements consumer side find/subscribe/receive,</text><text fill="#000000" font-family="sans-serif" font-size="12" lengthAdjust="spacing" textLength="289" x="1348" y="484.3604">and producer side offer/allocate/publish operations.</text><text fill="#000000" font-family="sans-serif" font-size="12" lengthAdjust="spacing" textLength="340" x="1322.5" y="500.7045">It maintains the runtime lifecycle and resource management.</text></g><g id="elem_GMN22"><path d="M626.5,595.5 L626.5,654.5323 L1403.5,654.5323 L1403.5,605.5 L1393.5,595.5 L626.5,595.5 " fill="#FEFFDD" style="stroke:#181818;stroke-width:0.5;"/><path d="M1393.5,595.5 L1393.5,605.5 L1403.5,605.5 L1393.5,595.5 " fill="#FEFFDD" style="stroke:#181818;stroke-width:1.0;"/><text fill="#000000" font-family="sans-serif" font-size="12" lengthAdjust="spacing" textLength="556" x="732.5" y="613.3281">Rust-C++ FFI bridge layer that facilitates communication between Rust runtime and C++ middleware.</text><text fill="#000000" font-family="sans-serif" font-size="12" lengthAdjust="spacing" textLength="644" x="688.5" y="629.6722">It contains the necessary bindings and type registry to enable seamless interoperability between the two languages.</text><text fill="#000000" font-family="sans-serif" font-size="12" lengthAdjust="spacing" textLength="756" x="632.5" y="646.0163">Rust code in the runtime layer can invoke C++ middleware functions through this bridge, and C++ code can call back into Rust as needed.</text></g><g id="elem_GMN29"><path d="M1994,587.5 L1994,662.8765 L2422,662.8765 L2422,597.5 L2412,587.5 L1994,587.5 " fill="#FEFFDD" style="stroke:#181818;stroke-width:0.5;"/><path d="M2412,587.5 L2412,597.5 L2422,597.5 L2412,587.5 " fill="#FEFFDD" style="stroke:#181818;stroke-width:1.0;"/><text fill="#000000" font-family="sans-serif" font-size="12" lengthAdjust="spacing" textLength="303" x="2052" y="605.3281">Exports the C++ COM API as a Rust FFI compatible API.</text><text fill="#000000" font-family="sans-serif" font-size="12" lengthAdjust="spacing" textLength="259" x="2074" y="621.6722">Contains generated C++ code for type exports,</text><text fill="#000000" font-family="sans-serif" font-size="12" lengthAdjust="spacing" textLength="407" x="2000" y="638.0163">FFI support macros and type registry for managing Rust-C++ interactions,</text><text fill="#000000" font-family="sans-serif" font-size="12" lengthAdjust="spacing" textLength="343" x="2032" y="654.3604">And it calls the Core C++ middleware API for COM operations.</text></g><!--link LAYER1 to GMN6--><g id="link_LAYER1_GMN6"><path d="M462.9807,110.8755 C462.7005,111.081 462.4135,111.2914 462.12,111.5067 C461.5328,111.9373 460.9192,112.3873 460.2798,112.8561 C459.0011,113.7939 457.6195,114.807 456.1414,115.8909 C453.1852,118.0587 449.843,120.5096 446.1656,123.2061 C431.4563,133.9922 411.385,148.7094 389.21,164.9687 C344.86,197.4875 292.095,236.175 256.98,261.92 " fill="none" id="LAYER1-GMN6" style="stroke:#333333;stroke-width:1.0;stroke-dasharray:7.0,7.0;"/></g><!--link LAYER2 to GMN12--><g id="link_LAYER2_GMN12"><path d="M554.9694,319.8161 C554.3624,321.3538 553.7166,322.913 553.0304,324.4813 C551.658,327.6179 550.1241,330.7908 548.4169,333.9003 C545.0025,340.1194 540.895,346.085 536,351 C503.04,384.09 458.41,408.51 416.63,425.92 " fill="none" id="LAYER2-GMN12" style="stroke:#333333;stroke-width:1.0;stroke-dasharray:7.0,7.0;"/></g><!--link LAYER3 to GMN17--><g id="link_LAYER3_GMN17"><path d="M1311.2269,299.7061 C1311.3334,299.7994 1311.4408,299.8935 1311.5491,299.9884 C1311.9823,300.3681 1312.4303,300.7607 1312.8927,301.1658 C1314.7421,302.7865 1316.8212,304.6086 1319.1045,306.6095 C1328.2378,314.6134 1340.6381,325.4806 1354.6712,337.7788 C1382.7375,362.375 1417.335,392.695 1445.39,417.28 " fill="none" id="LAYER3-GMN17" style="stroke:#333333;stroke-width:1.0;stroke-dasharray:7.0,7.0;"/></g><!--link LAYER4 to GMN22--><g id="link_LAYER4_GMN22"><path d="M1015,507.029 C1015,507.8255 1015,508.6283 1015,509.4371 C1015,511.0546 1015,512.6959 1015,514.3575 C1015,540.9425 1015,572.71 1015,595.19 " fill="none" id="LAYER4-GMN22" style="stroke:#333333;stroke-width:1.0;stroke-dasharray:7.0,7.0;"/></g><!--link LAYER5 to GMN29--><g id="link_LAYER5_GMN29"><path d="M1970.1163,469.7644 C1970.3705,469.9292 1970.6301,470.0975 1970.895,470.2693 C1971.9549,470.9563 1973.1008,471.6992 1974.3279,472.4947 C1976.7821,474.0858 1979.5614,475.8877 1982.6277,477.8756 C1994.8928,485.8275 2011.7506,496.7575 2030.7713,509.09 C2068.8125,533.755 2115.505,564.03 2151.41,587.31 " fill="none" id="LAYER5-GMN29" style="stroke:#333333;stroke-width:1.0;stroke-dasharray:7.0,7.0;"/></g><!--link USER_CODE to RUNTIME_BUILD--><g id="link_USER_CODE_RUNTIME_BUILD"><path d="M731.97,115.11 C802.81,144.97 1006.4313,230.8191 1098.3213,269.5591 " fill="none" id="USER_CODE-to-RUNTIME_BUILD" style="stroke:#333333;stroke-width:1.0;"/><polygon fill="#333333" points="1103.85,271.89,1097.1108,264.7079,1099.2427,269.9476,1094.003,272.0795,1103.85,271.89" style="stroke:#333333;stroke-width:1.0;"/><text fill="#000000" font-family="sans-serif" font-size="12" lengthAdjust="spacing" textLength="59" x="942" y="200.8281">instantiate</text></g><!--link USER_MONITOR to TRAITS--><g id="link_USER_MONITOR_TRAITS"><path d="M574.07,115.29 C547.63,150.92 467.1,271.16 519,351 C552.13,401.97 608.74,428.2202 663.03,443.3402 " fill="none" id="USER_MONITOR-to-TRAITS" style="stroke:#333333;stroke-width:1.0;"/><polygon fill="#333333" points="668.81,444.95,661.2131,438.682,663.9933,443.6085,659.0668,446.3887,668.81,444.95" style="stroke:#333333;stroke-width:1.0;"/><text fill="#000000" font-family="sans-serif" font-size="12" lengthAdjust="spacing" textLength="26" x="520" y="296.3281">uses</text></g><!--link USER_MONITOR to GEN_API--><g id="link_USER_MONITOR_GEN_API"><path d="M592.38,115.24 C622.78,145.24 707.7191,229.0458 746.9091,267.7158 " fill="none" id="USER_MONITOR-to-GEN_API" style="stroke:#333333;stroke-width:1.0;"/><polygon fill="#333333" points="751.18,271.93,747.5832,262.7614,747.6209,268.4182,741.9642,268.4559,751.18,271.93" style="stroke:#333333;stroke-width:1.0;"/><text fill="#000000" font-family="sans-serif" font-size="12" lengthAdjust="spacing" textLength="76" x="682" y="200.8281">parametrized</text><text fill="#000000" font-family="sans-serif" font-size="12" lengthAdjust="spacing" textLength="3" x="758" y="200.8281">&#160;</text><text fill="#000000" font-family="sans-serif" font-size="12" lengthAdjust="spacing" textLength="13" x="761" y="200.8281">by</text></g><!--link RUNTIME_BUILD to TRAITS--><g id="link_RUNTIME_BUILD_TRAITS"><path d="M1106.83,311.02 C1034.21,343.67 889.6618,408.6785 816.8818,441.4185 " fill="none" id="RUNTIME_BUILD-to-TRAITS" style="stroke:#333333;stroke-width:1.0;"/><polygon fill="#333333" points="811.41,443.88,821.2588,443.8356,815.9699,441.8287,817.9768,436.5399,811.41,443.88" style="stroke:#333333;stroke-width:1.0;"/><text fill="#000000" font-family="sans-serif" font-size="12" lengthAdjust="spacing" textLength="66" x="993" y="372.8281">implements</text></g><!--link GEN_API to TRAITS--><g id="link_GEN_API_TRAITS"><path d="M770,311.02 C770,343.63 770,404.97 770,437.75 " fill="none" id="GEN_API-to-TRAITS" style="stroke:#333333;stroke-width:1.0;"/><polygon fill="#333333" points="770,443.75,774,434.75,770,438.75,766,434.75,770,443.75" style="stroke:#333333;stroke-width:1.0;"/><text fill="#000000" font-family="sans-serif" font-size="12" lengthAdjust="spacing" textLength="48" x="771" y="372.8281">depends</text><text fill="#000000" font-family="sans-serif" font-size="12" lengthAdjust="spacing" textLength="3" x="819" y="372.8281">&#160;</text><text fill="#000000" font-family="sans-serif" font-size="12" lengthAdjust="spacing" textLength="14" x="822" y="372.8281">on</text></g><!--link RUNTIME_BUILD to FFI_BRIDGE--><g id="link_RUNTIME_BUILD_FFI_BRIDGE"><path d="M1147.78,311.02 C1147.4,343.63 1146.6814,404.9704 1146.2914,437.7504 " fill="none" id="RUNTIME_BUILD-to-FFI_BRIDGE" style="stroke:#333333;stroke-width:1.0;"/><polygon fill="#333333" points="1146.22,443.75,1150.3268,434.7982,1146.2795,438.7504,1142.3274,434.7031,1146.22,443.75" style="stroke:#333333;stroke-width:1.0;"/><text fill="#000000" font-family="sans-serif" font-size="12" lengthAdjust="spacing" textLength="42" x="1148" y="372.8281">bridges</text><text fill="#000000" font-family="sans-serif" font-size="12" lengthAdjust="spacing" textLength="3" x="1190" y="372.8281">&#160;</text><text fill="#000000" font-family="sans-serif" font-size="12" lengthAdjust="spacing" textLength="16" x="1193" y="372.8281">via</text></g><!--link FFI_BRIDGE to FFI_SUPPORT--><g id="link_FFI_BRIDGE_FFI_SUPPORT"><path d="M1180.08,483.12 C1205.13,496.07 1240.33,512.77 1273,523 C1437.77,574.58 1632.0669,601.7156 1746.3269,614.4456 " fill="none" id="FFI_BRIDGE-to-FFI_SUPPORT" style="stroke:#333333;stroke-width:1.0;"/><polygon fill="#333333" points="1752.29,615.11,1743.7883,610.138,1747.3207,614.5564,1742.9024,618.0889,1752.29,615.11" style="stroke:#333333;stroke-width:1.0;"/><text fill="#000000" font-family="sans-serif" font-size="12" lengthAdjust="spacing" textLength="49" x="1396" y="553.3281">interacts</text><text fill="#000000" font-family="sans-serif" font-size="12" lengthAdjust="spacing" textLength="3" x="1445" y="553.3281">&#160;</text><text fill="#000000" font-family="sans-serif" font-size="12" lengthAdjust="spacing" textLength="23" x="1448" y="553.3281">with</text></g><!--link CPP_CODE to FFI_SUPPORT--><g id="link_CPP_CODE_FFI_SUPPORT"><path d="M1844,483.11 C1844,513.68 1844,568.2 1844,599.02 " fill="none" id="CPP_CODE-to-FFI_SUPPORT" style="stroke:#333333;stroke-width:1.0;"/><polygon fill="#333333" points="1844,605.02,1848,596.02,1844,600.02,1840,596.02,1844,605.02" style="stroke:#333333;stroke-width:1.0;"/><text fill="#000000" font-family="sans-serif" font-size="12" lengthAdjust="spacing" textLength="50" x="1845" y="553.3281">registers</text></g><!--link FFI_SUPPORT to CPP_CLASSES--><g id="link_FFI_SUPPORT_CPP_CLASSES"><path d="M1844,644.77 C1844,670.12 1844,709.02 1844,734.32 " fill="none" id="FFI_SUPPORT-to-CPP_CLASSES" style="stroke:#333333;stroke-width:1.0;"/><polygon fill="#333333" points="1844,740.32,1848,731.32,1844,735.32,1840,731.32,1844,740.32" style="stroke:#333333;stroke-width:1.0;"/><text fill="#000000" font-family="sans-serif" font-size="12" lengthAdjust="spacing" textLength="42" x="1845" y="706.3281">invokes</text></g><!--SRC=[TLPTRziw37ttho3MXxLOq_HZlRWt60QahZCOIDeWIOTxWGA3OYkEK5io9BbfDko_NrAo7MTfjeTb5dL87XwI-WYXAhTQP6iBfyaPN5zUt-8dQRLOLbPf0rQ1NNE8aboKXiD8LJ9bLYWPV0m-mfnpT_pmk8Z325OYvwVc359XF09FOIFi6cs4WOtIBx1I6bYQ2e9WEK88YPyA1mcQPqodGcQGj66fZUJQh4LvuJmk2AdKAjEi02PJvvubYIfA9hTq5R6u5Ymtm3J7_wLu_if4pfOv1uoUQxg3K6XM650h1p4iMOB_Z4N29URv7NrIHDSNbx1PYsGDw7O7mopU_xAsjZI3Vd-psLmmT_z2wQoVUmpJ7oCd3_EeXo1VFLtJ-tzxjOjUd79fnKfmFQYzas4Gc1SXIqRfBLdoacbYF5GvydOo6jBVZaNALwpAxGWhDXS_ELnTTmw7MgjDVVF6_UaSeiCNbl6vtM8wcYUMoIpdXz0B_cQ7kSXaWT42HewiTQmAzZRXnX0I-R-vn0HQDFW0m-aKMHWkuiS760__YsRuZHd_ymfEeglHxIY2Nm50vzQJmHeDonA9TBfmLvxcqUm7mZbZW0I50XyA9kJfsUuyVBoFEiVVEPOkvnCb1Ohvo-phpdBo-10l7cTe_3lu7GHIMGvBPQqgI14-FZpiH86QH2bLXZIMSHIbI41NMC82rJEDpJcQUwcGxigSMH9sJw3YIYwfs1TeuIE6LIKJ1oemD1GhacUS3Xj4ahRXra1LajpJAa55zXCbJLNWhui08O6Y_eFlk_bYDWpVvViQJiA_ex_2Vno5dY7izOIN5XQQ2MjEiOrwh1Izn7y-UvOp7yyvpAkbIR2fkJw7QRNCXLbpxS3HORoOjv0GaqPMBE5WIfwWmXEmsvAVEjAmETCUCOd4r6QznWpTXNM2wADE-do7vxnzYnvG1l6nebrJqPOuVfZdDsTR51EA6Odk5CwwV1tBRHp63QVmSKBbf5h55W-Jl4hng6QakKYMI5PHoKOTrAnO4uU9TzjauJ1FHqU3KHVKXT8Mkl5ke2CVoX5dt8xLHYkYA7DE_UaYET_F2fGMrBNfCSdCdXuMyIGwaCiDpfjH6Dw57RcCLSvgHSJejDLB7KalntEiebCJn7jX6OTSE_jnznIFxu_Ly0RzkJcFx5Zi5zyPL07DqNginknOxirDNtRyeRafqRcWgUrsJvwtTrL99QBOo3N5lkCsLvb8cZ8qFanRBp02Xm6AAksRfZ7wo2eNhvo2w5RJswhLYki-kbSe6DulVGjrOgYTqO3O9Ts4ceiLJxP9xWS39gKgdT1sapXw2pTRtg_kQ1J3tIo-_tPOuCzKuEZoxhfJu5bbR2_yz0dkC3Li6EFtzvhd9N7qB661seKPpsZ5RnqOklZXNHmhw6V4Rv4fegKMQSRhAjariu1I5Rd0AhfUssiiRZUSImUmDnu9h11fclCDJjoQlZt9I2m8BYUzXMMJZdioK0gwJe5UE5owhMuuAtAyu9l7LMP9GMtR60ZKRXG6BhCAcNT5Su6vvI3aVj5SUWcZAV-gNlWV4RTBW8B5DP_LxoHFpdcReuCcb8J4ItE60bJUB_8lEK-FjpSXn9FfE9f43ulk8gPke5hi174B9_TNuUUeko2-jNECW48C1TkR-8lUIgMjx-fmEcrMRxrMq7R24grS4dkIUPRaT5wLTBtLp_nfEdsSBVO0YirWW5AWQVmiSHsyRVlp5vvpIpCkUgL-t7aV3-VpQ7vCWBS8N0ViAkHoyOEU49ZdaW9p3qdhnaMz1S96KTaU5QugnA5J4_VWrFg4Odnws9_8mNkYeukkUMafjQtXTESNbuCQqY2thkvrt4eVg8XoQ1PNTvhivD0-ZQ3N-xe_WWVeqw1My0s2bjsNaRFrgts0hnvk3a_hLJm0znRa-EJ_YUGijq6mvsCFQJTBW_hwth5VTZYFvNiWkqapgBl4mAjWmUvxQrOBQj1owYTPq4ZrqD3N1fTlqFdip3e26zIjR8B_0G00]--></g></svg>