<?xml version="1.0" encoding="us-ascii" standalone="no"?><svg xmlns="http://www.w3.org/2000/svg" xmlns:xlink="http://www.w3.org/1999/xlink" contentStyleType="text/css" height="633px" preserveAspectRatio="none" style="width:495px;height:633px;background:#FAFAFA;" version="1.1" viewBox="0 0 495 633" width="495px" zoomAndPan="magnify"><defs/><g><rect fill="#FAFAFA" height="633" style="stroke:none;stroke-width:1.0;" width="495" x="0" y="0"/><!--cluster RUNTIMES--><g id="cluster_RUNTIMES"><rect fill="none" height="104" rx="2.5" ry="2.5" style="stroke:#181818;stroke-width:1.0;" width="361" x="23" y="238"/><text fill="#000000" font-family="sans-serif" font-size="12" font-weight="bold" lengthAdjust="spacing" textLength="58" x="174.5" y="252.8281">Runtimes</text></g><!--cluster ABSTRACTION--><g id="cluster_ABSTRACTION"><rect fill="none" height="235" rx="2.5" ry="2.5" style="stroke:#181818;stroke-width:1.0;" width="190" x="207" y="392"/><text fill="#000000" font-family="sans-serif" font-size="12" font-weight="bold" lengthAdjust="spacing" textLength="69" x="267.5" y="406.8281">Abstraction</text></g><!--entity RUNTIME_LOLA--><g id="elem_RUNTIME_LOLA"><rect fill="#FFCCBC" height="52.6882" rx="2.5" ry="2.5" style="stroke:#181818;stroke-width:0.5;" width="145" x="39.5" y="273"/><text fill="#000000" font-family="sans-serif" font-size="12" lengthAdjust="spacing" textLength="117" x="53.5" y="295.8281">com-api-runtime-lola</text><text fill="#000000" font-family="sans-serif" font-size="12" lengthAdjust="spacing" textLength="125" x="49.5" y="312.1722">(LoLa implementation)</text></g><!--entity RUNTIME_MOCK--><g id="elem_RUNTIME_MOCK"><rect fill="#FFCCBC" height="52.6882" rx="2.5" ry="2.5" style="stroke:#181818;stroke-width:0.5;" width="149" x="219.5" y="273"/><text fill="#000000" font-family="sans-serif" font-size="12" lengthAdjust="spacing" textLength="127" x="230.5" y="295.8281">com-api-runtime-mock</text><text fill="#000000" font-family="sans-serif" font-size="12" lengthAdjust="spacing" textLength="129" x="229.5" y="312.1722">(mock implementation)</text></g><!--entity CONCEPT--><g id="elem_CONCEPT"><rect fill="#C8E6C9" height="52.6882" rx="2.5" ry="2.5" style="stroke:#181818;stroke-width:0.5;" width="113" x="244.5" y="427"/><text fill="#000000" font-family="sans-serif" font-size="12" lengthAdjust="spacing" textLength="93" x="254.5" y="449.8281">com-api-concept</text><text fill="#000000" font-family="sans-serif" font-size="12" lengthAdjust="spacing" textLength="82" x="260" y="466.1722">(traits &amp; types)</text></g><!--entity MACROS--><g id="elem_MACROS"><rect fill="#C8E6C9" height="52.6882" rx="2.5" ry="2.5" style="stroke:#181818;stroke-width:0.5;" width="159" x="222.5" y="558"/><text fill="#000000" font-family="sans-serif" font-size="12" lengthAdjust="spacing" textLength="139" x="232.5" y="580.8281">com-api-concept-macros</text><text fill="#000000" font-family="sans-serif" font-size="12" lengthAdjust="spacing" textLength="88" x="258" y="597.1722">(derive macros)</text></g><!--entity APP--><g id="elem_APP"><rect fill="#E1F5FE" height="36.3441" rx="2.5" ry="2.5" style="stroke:#181818;stroke-width:0.5;" width="144" x="222" y="7"/><text fill="#000000" font-family="sans-serif" font-size="12" lengthAdjust="spacing" textLength="124" x="232" y="29.8281">User Application Code</text></g><!--entity FACADE--><g id="elem_FACADE"><rect fill="#C8E6C9" height="52.6882" rx="2.5" ry="2.5" style="stroke:#181818;stroke-width:0.5;" width="139" x="224.5" y="121"/><text fill="#000000" font-family="sans-serif" font-size="12" lengthAdjust="spacing" textLength="45" x="271.5" y="143.8281">com-api</text><text fill="#000000" font-family="sans-serif" font-size="12" lengthAdjust="spacing" textLength="119" x="234.5" y="160.1722">(re-exports &amp; facade)</text></g><!--entity FFI--><g id="elem_FFI"><rect fill="#FFE0B2" height="52.6882" rx="2.5" ry="2.5" style="stroke:#181818;stroke-width:0.5;" width="136" x="34" y="427"/><text fill="#000000" font-family="sans-serif" font-size="12" lengthAdjust="spacing" textLength="84" x="60" y="449.8281">com-api-ffi-lola</text><text fill="#000000" font-family="sans-serif" font-size="12" lengthAdjust="spacing" textLength="116" x="44" y="466.1722">(C++/Rust FFI bridge)</text></g><!--entity CPP--><g id="elem_CPP"><rect fill="#D1C4E9" height="36.3441" rx="2.5" ry="2.5" style="stroke:#181818;stroke-width:0.5;" width="180" x="7" y="566.5"/><text fill="#000000" font-family="sans-serif" font-size="12" lengthAdjust="spacing" textLength="160" x="17" y="589.3281">MW::COM (LoLa) C++ Library</text></g><!--link APP to FACADE--><g id="link_APP_FACADE"><path d="M294,43.01 C294,63.25 294,91.25 294,114.73 " fill="none" id="APP-to-FACADE" style="stroke:#333333;stroke-width:1.0;"/><polygon fill="#333333" points="294,120.73,298,111.73,294,115.73,290,111.73,294,120.73" style="stroke:#333333;stroke-width:1.0;"/><text fill="#000000" font-family="sans-serif" font-size="12" lengthAdjust="spacing" textLength="26" x="295" y="86.8281">uses</text></g><!--link FACADE to RUNTIME_LOLA--><g id="link_FACADE_RUNTIME_LOLA"><path d="M258.04,174.14 C245.51,183.33 231.47,193.91 219,204 C191.25,226.45 165.3029,249.4966 144.0229,268.9066 " fill="none" id="FACADE-to-RUNTIME_LOLA" style="stroke:#333333;stroke-width:1.0;"/><polygon fill="#333333" points="139.59,272.95,148.935,269.8402,143.2841,269.5805,143.5438,263.9296,139.59,272.95" style="stroke:#333333;stroke-width:1.0;"/><text fill="#000000" font-family="sans-serif" font-size="12" lengthAdjust="spacing" textLength="65" x="220" y="217.8281">instantiates</text></g><!--link FACADE to RUNTIME_MOCK--><g id="link_FACADE_RUNTIME_MOCK"><path d="M294,174.29 C294,201.76 294,239.01 294,266.55 " fill="none" id="FACADE-to-RUNTIME_MOCK" style="stroke:#333333;stroke-width:1.0;"/><polygon fill="#333333" points="294,272.55,298,263.55,294,267.55,290,263.55,294,272.55" style="stroke:#333333;stroke-width:1.0;"/><text fill="#000000" font-family="sans-serif" font-size="12" lengthAdjust="spacing" textLength="97" x="295" y="217.8281">instantiates (test)</text></g><!--link FACADE to CONCEPT--><g id="link_FACADE_CONCEPT"><path d="M363.58,170.69 C378.42,178.77 392.25,189.6 401,204 C441.23,270.18 415.29,311.12 373,376 C360.85,394.64 348.232,408.7076 333.842,422.6976 " fill="none" id="FACADE-to-CONCEPT" style="stroke:#333333;stroke-width:1.0;"/><polygon fill="#333333" points="329.54,426.88,338.7813,423.4744,333.125,423.3946,333.2047,417.7384,329.54,426.88" style="stroke:#333333;stroke-width:1.0;"/><text fill="#000000" font-family="sans-serif" font-size="12" lengthAdjust="spacing" textLength="65" x="422" y="304.3281">depends on</text></g><!--link RUNTIME_LOLA to CONCEPT--><g id="link_RUNTIME_LOLA_CONCEPT"><path d="M144.06,326.28 C178.92,354.32 229.624,395.1004 264.424,423.0804 " fill="none" id="RUNTIME_LOLA-to-CONCEPT" style="stroke:#333333;stroke-width:1.0;"/><polygon fill="#333333" points="269.1,426.84,264.5924,418.0832,265.2033,423.707,259.5795,424.3179,269.1,426.84" style="stroke:#333333;stroke-width:1.0;"/><text fill="#000000" font-family="sans-serif" font-size="12" lengthAdjust="spacing" textLength="66" x="201" y="371.8281">implements</text></g><!--link RUNTIME_MOCK to CONCEPT--><g id="link_RUNTIME_MOCK_CONCEPT"><path d="M295.19,326.28 C296.48,354.32 298.2537,392.8664 299.5437,420.8464 " fill="none" id="RUNTIME_MOCK-to-CONCEPT" style="stroke:#333333;stroke-width:1.0;"/><polygon fill="#333333" points="299.82,426.84,303.4013,417.6653,299.5897,421.8453,295.4097,418.0338,299.82,426.84" style="stroke:#333333;stroke-width:1.0;"/><text fill="#000000" font-family="sans-serif" font-size="12" lengthAdjust="spacing" textLength="66" x="298" y="371.8281">implements</text></g><!--link RUNTIME_LOLA to FFI--><g id="link_RUNTIME_LOLA_FFI"><path d="M107.17,326.17 C105.52,336.07 103.87,347.53 103,358 C101.07,381.22 100.8754,401.7507 101.1754,420.7807 " fill="none" id="RUNTIME_LOLA-to-FFI" style="stroke:#333333;stroke-width:1.0;"/><polygon fill="#333333" points="101.27,426.78,105.1276,417.7181,101.1912,421.7806,97.1286,417.8442,101.27,426.78" style="stroke:#333333;stroke-width:1.0;"/><text fill="#000000" font-family="sans-serif" font-size="12" lengthAdjust="spacing" textLength="44" x="104" y="371.8281">calls via</text></g><!--link CONCEPT to MACROS--><g id="link_CONCEPT_MACROS"><path d="M301.2,480.3 C301.37,502.79 301.5846,529.2602 301.7546,551.7502 " fill="none" id="CONCEPT-to-MACROS" style="stroke:#333333;stroke-width:1.0;"/><polygon fill="#333333" points="301.8,557.75,305.7319,548.72,301.7622,552.7501,297.7321,548.7805,301.8,557.75" style="stroke:#333333;stroke-width:1.0;"/><text fill="#000000" font-family="sans-serif" font-size="12" lengthAdjust="spacing" textLength="26" x="302" y="523.8281">uses</text></g><!--link FFI to CPP--><g id="link_FFI_CPP"><path d="M101,480.3 C100.01,505.88 98.754,538.3646 97.894,560.3946 " fill="none" id="FFI-to-CPP" style="stroke:#333333;stroke-width:1.0;"/><polygon fill="#333333" points="97.66,566.39,102.008,557.5529,97.855,561.3938,94.0141,557.2408,97.66,566.39" style="stroke:#333333;stroke-width:1.0;"/><text fill="#000000" font-family="sans-serif" font-size="12" lengthAdjust="spacing" textLength="42" x="100" y="523.8281">invokes</text></g><!--SRC=[XLJlQzim4Ftkl-9OOMqeJjfi7PiP1LUr8Io_ID9j7mP3aML7n9QCfCJDHl_tdUmaYsdNnH0ZwzvxT-zqEWUYofqMsSh21Uj0_wf_Wv-arMAviKeRi0hiYaF4Sb4Q3h7Qo8HQeQHtxft3dFDwUpnP34W4gSZvXUb08ap3m1EeX5rXZ31GARs6L6cWII8S1SsHGaZyLDIKe7b6TI9a1koObgearsObocwjk71CfLQPfWLGcTJob35Lb5Jk71Ivk1OqDq0rnrM2-rigShhCEM3sN3iCKc5OOK2bDKLOKeQleM1SOfrVKTDbrEzUGRKIR0Ke-vU6MiH_NbbRcg3NgwggIsjyL-cibpSSfZT4JyRpo4UIsyQkwVrtVo_X3n8khKW5ry5UtGLwdbaBML9NtfAoTQQTuqJbwDjP7Bhd92BXATtaDiQEpSKl3jVzayrGQrNjaU_gtyac2gvfnkTsX-LepYoLMSwVKo_uemrpaSa2imNC75tpl2C0tZmOD3GiIwowQI9H2Ny3r40udS9PT1tVn54BWRtoQIb-o0lDVVvOAcqDl8MKCknLfuR68Gdl8pWZ7wCFv5CBFTkWQmKtTTpiORmOZA8v_FO0dalukWdsSvLJr1kg8GLHb3btrTJfTavvVWudmn1jZWcv8wyp5egjaT6zNcKSJSYN8-DJgv9mYLD2cSCqVjtD5xEGB0QJyR_gOKeoNbeKHgIeRRExafj6aqp699ekZhQzHk4Nb6bba0a7GcpTeBXrGpGAoMmoF_8ylTG-Fqt5mLToUTcRROo5E1x0KeiaE_GHrrXyT7NNRt6ClWK1cOoWxaW748-JjzHKxvf2tCcvloRl8-ozEqQ-Vtiu4m5iSBQy_Sfjj9eNu8LYKCOAl0PU3AixqWw32_opdTFeWvS13aB9PO8NXVHQIkseunamNalelr57BkTL08pcU7Dj1VKEABUtRyYXTeoiUT4PLyXMhV7h7m00]--></g></svg>